<svg width="28" height="20" viewBox="0 0 28 20" fill="none" xmlns="http://www.w3.org/2000/svg">
<path d="M2.27 19.52C1.69417 19.52 1.21375 19.3271 0.82875 18.9412C0.44375 18.5554 0.250833 18.075 0.25 17.5V2.49998C0.25 1.92498 0.442917 1.44456 0.82875 1.05873C1.21458 0.672897 1.69458 0.47998 2.26875 0.47998H25.7313C26.3063 0.47998 26.7867 0.672897 27.1725 1.05873C27.5583 1.44456 27.7508 1.92498 27.75 2.49998V17.5C27.75 18.075 27.5575 18.5554 27.1725 18.9412C26.7875 19.3271 26.3071 19.52 25.7313 19.52H2.27ZM17.4812 18.27H25.7313C25.9229 18.27 26.0992 18.1896 26.26 18.0287C26.42 17.8687 26.5 17.6925 26.5 17.5V2.49998C26.5 2.30831 26.42 2.13206 26.26 1.97123C26.0992 1.81123 25.9225 1.73123 25.73 1.73123H2.27C2.0775 1.73123 1.90083 1.81123 1.74 1.97123C1.57917 2.13123 1.49917 2.30748 1.5 2.49998V17.5C1.5 17.6916 1.58 17.8679 1.74 18.0287C1.9 18.1896 2.07625 18.27 2.26875 18.27H3.01875C3.89375 17.14 4.95792 16.2325 6.21125 15.5475C7.46458 14.8625 8.81083 14.52 10.25 14.52C11.6892 14.52 13.035 14.8625 14.2875 15.5475C15.54 16.2325 16.6046 17.14 17.4812 18.27ZM10.25 12.7875C11.1158 12.7875 11.8533 12.4829 12.4625 11.8737C13.0717 11.2646 13.3758 10.5271 13.375 9.66123C13.3742 8.7954 13.07 8.05873 12.4625 7.45123C11.855 6.84373 11.1175 6.53915 10.25 6.53748C9.3825 6.53581 8.645 6.83998 8.0375 7.44998C7.43 8.05998 7.12583 8.79748 7.125 9.66248C7.12417 10.5275 7.42833 11.2646 8.0375 11.8737C8.64667 12.4829 9.38417 12.7883 10.25 12.7875ZM21.885 16.7775L23.9038 14.7587L22.3663 12.6912H20.2063C20.0496 12.2204 19.9375 11.7712 19.87 11.3437C19.8025 10.9162 19.7692 10.4683 19.77 9.99998C19.7708 9.53165 19.8042 9.09373 19.87 8.68623C19.9358 8.27873 20.0483 7.81915 20.2075 7.30748H22.365L23.9038 5.23998L21.885 3.22123C20.8717 4.0479 20.0812 5.05331 19.5137 6.23748C18.9471 7.42081 18.6637 8.67498 18.6637 9.99998C18.6637 11.325 18.9471 12.5791 19.5137 13.7625C20.0804 14.9458 20.8708 15.95 21.885 16.7775ZM4.6875 18.27H15.8125C15.0875 17.4783 14.245 16.8637 13.285 16.4262C12.3242 15.9887 11.3125 15.77 10.25 15.77C9.1875 15.77 8.17708 15.9887 7.21875 16.4262C6.26042 16.8637 5.41667 17.4783 4.6875 18.27ZM10.25 11.5375C9.73583 11.5375 9.29458 11.3537 8.92625 10.9862C8.55875 10.6179 8.375 10.1762 8.375 9.66123C8.375 9.14623 8.55875 8.7054 8.92625 8.33873C9.29375 7.97206 9.735 7.78873 10.25 7.78873C10.765 7.78873 11.2063 7.97248 11.5738 8.33998C11.9413 8.70748 12.125 9.14873 12.125 9.66373C12.125 10.1787 11.9413 10.62 11.5738 10.9875C11.2054 11.3541 10.7642 11.5375 10.25 11.5375Z" fill="#3D3D3D"/>
</svg>
