<svg width="59" height="64" viewBox="0 0 59 64" fill="none" xmlns="http://www.w3.org/2000/svg">
<path d="M6.38262 57.6023L1.2489 0H57.6786L52.538 57.5931L29.4295 64L6.38262 57.6023Z" fill="#1572B6"/>
<path d="M29.4637 59.104L48.138 53.9269L52.5312 4.71088H29.4637V59.104Z" fill="#33A9DC"/>
<path d="M29.4637 25.5795H38.8123L39.4569 18.3452H29.4637V11.28H47.178L47.0089 13.1749L45.274 32.6446H29.4637V25.5795Z" fill="white"/>
<path d="M29.5072 43.9269L29.4752 43.936L21.6078 41.8103L21.1049 36.176H14.0123L15.002 47.2686L29.4729 51.2869L29.5072 51.2777V43.9269Z" fill="#EBEBEB"/>
<path d="M38.2112 32.3452L37.3609 41.8057L29.4821 43.9314V51.2823L43.9643 47.2686L44.0718 46.0754L45.2992 32.3452H38.2112Z" fill="white"/>
<path d="M29.4889 11.28V18.3452H12.4238L12.2821 16.7566L11.9598 13.1749L11.7906 11.28H29.4889ZM29.4638 25.5795V32.6446H21.6947L21.5529 31.056L21.2329 27.4743L21.0638 25.5795H29.4638Z" fill="#EBEBEB"/>
</svg>
