<svg width="44" height="48" viewBox="0 0 44 48" fill="none" xmlns="http://www.w3.org/2000/svg">
<g clip-path="url(#clip0_236_286)">
<path d="M4.6702 43.2017L0.819916 0H43.1422L39.2868 43.1949L21.9553 48L4.6702 43.2017Z" fill="#1572B6"/>
<path d="M21.981 44.328L35.9868 40.4451L39.2816 3.53314H21.981V44.328Z" fill="#33A9DC"/>
<path d="M21.981 19.1846H28.9925L29.4759 13.7589H21.981V8.46002H35.2668L35.1399 9.88116L33.8388 24.4835H21.981V19.1846Z" fill="white"/>
<path d="M22.0136 32.9452L21.9896 32.952L16.0891 31.3577L15.7119 27.132H10.3925L11.1348 35.4514L21.9879 38.4652L22.0136 38.4583V32.9452Z" fill="#EBEBEB"/>
<path d="M28.5416 24.2589L27.9039 31.3543L21.9948 32.9486V38.4617L32.8565 35.4514L32.9371 34.5566L33.8576 24.2589H28.5416Z" fill="white"/>
<path d="M21.9999 8.46002V13.7589H9.20105L9.09477 12.5675L8.85305 9.88116L8.7262 8.46002H21.9999ZM21.9811 19.1846V24.4835H16.1542L16.0479 23.292L15.8079 20.6057L15.6811 19.1846H21.9811Z" fill="#EBEBEB"/>
</g>
<defs>
<clipPath id="clip0_236_286">
<rect width="42.8571" height="48" fill="white" transform="translate(0.55249)"/>
</clipPath>
</defs>
</svg>
