<svg width="33" height="48" viewBox="0 0 33 48" fill="none" xmlns="http://www.w3.org/2000/svg">
<g clip-path="url(#clip0_236_348)">
<path d="M8.8143 48C13.2303 48 16.8143 44.416 16.8143 40V32H8.8143C4.3983 32 0.814301 35.584 0.814301 40C0.814301 44.416 4.3983 48 8.8143 48Z" fill="#0ACF83"/>
<path d="M0.814301 24C0.814301 19.584 4.3983 16 8.8143 16H16.8143V32H8.8143C4.3983 32 0.814301 28.416 0.814301 24Z" fill="#A259FF"/>
<path d="M0.814301 8C0.814301 3.584 4.3983 0 8.8143 0H16.8143V16H8.8143C4.3983 16 0.814301 12.416 0.814301 8Z" fill="#F24E1E"/>
<path d="M16.8143 0H24.8143C29.2303 0 32.8143 3.584 32.8143 8C32.8143 12.416 29.2303 16 24.8143 16H16.8143V0Z" fill="#FF7262"/>
<path d="M32.8143 24C32.8143 28.416 29.2303 32 24.8143 32C20.3983 32 16.8143 28.416 16.8143 24C16.8143 19.584 20.3983 16 24.8143 16C29.2303 16 32.8143 19.584 32.8143 24Z" fill="#1ABCFE"/>
</g>
<defs>
<clipPath id="clip0_236_348">
<rect width="32.0025" height="48" fill="white" transform="translate(0.813049)"/>
</clipPath>
</defs>
</svg>
