<svg width="20" height="21" viewBox="0 0 20 21" fill="none" xmlns="http://www.w3.org/2000/svg">
<path d="M10 0.74231C8.68678 0.74231 7.38642 1.00097 6.17317 1.50351C4.95991 2.00606 3.85752 2.74266 2.92893 3.67124C1.05357 5.54661 0 8.09014 0 10.7423C0 15.1623 2.87 18.9123 6.84 20.2423C7.34 20.3223 7.5 20.0123 7.5 19.7423V18.0523C4.73 18.6523 4.14 16.7123 4.14 16.7123C3.68 15.5523 3.03 15.2423 3.03 15.2423C2.12 14.6223 3.1 14.6423 3.1 14.6423C4.1 14.7123 4.63 15.6723 4.63 15.6723C5.5 17.1923 6.97 16.7423 7.54 16.5023C7.63 15.8523 7.89 15.4123 8.17 15.1623C5.95 14.9123 3.62 14.0523 3.62 10.2423C3.62 9.13231 4 8.24231 4.65 7.53231C4.55 7.28231 4.2 6.24231 4.75 4.89231C4.75 4.89231 5.59 4.62231 7.5 5.91231C8.29 5.69231 9.15 5.58231 10 5.58231C10.85 5.58231 11.71 5.69231 12.5 5.91231C14.41 4.62231 15.25 4.89231 15.25 4.89231C15.8 6.24231 15.45 7.28231 15.35 7.53231C16 8.24231 16.38 9.13231 16.38 10.2423C16.38 14.0623 14.04 14.9023 11.81 15.1523C12.17 15.4623 12.5 16.0723 12.5 17.0023V19.7423C12.5 20.0123 12.66 20.3323 13.17 20.2423C17.14 18.9023 20 15.1623 20 10.7423C20 9.42909 19.7413 8.12873 19.2388 6.91547C18.7362 5.70222 17.9997 4.59983 17.0711 3.67124C16.1425 2.74266 15.0401 2.00606 13.8268 1.50351C12.6136 1.00097 11.3132 0.74231 10 0.74231Z" fill="white"/>
</svg>
