<svg width="44" height="48" viewBox="0 0 44 48" fill="none" xmlns="http://www.w3.org/2000/svg">
<g clip-path="url(#clip0_236_281)">
<path d="M4.81307 43.2017L0.961075 0H43.2868L39.4296 43.1949L22.0982 48L4.81307 43.2017Z" fill="#E44F26"/>
<path d="M22.1239 44.328L36.1296 40.4451L39.4245 3.53314H22.1239V44.328Z" fill="#F1662A"/>
<path d="M22.1239 19.5548H15.1125L14.6291 14.1291H22.1239V8.83026H8.83821L8.96507 10.2531L10.2662 24.8537H22.1239V19.5548ZM22.1239 33.3154L22.0999 33.3223L16.1994 31.7297L15.8222 27.504H10.5028L11.2451 35.8217L22.0999 38.8354L22.1239 38.8286V33.3154Z" fill="#EBEBEB"/>
<path d="M22.1051 19.5548V24.8537H28.6296L28.0159 31.7263L22.1051 33.3205V38.8337L32.9685 35.8217L33.0474 34.9268L34.2919 20.9777L34.4222 19.5548H22.1051ZM22.1051 8.83026V14.1291H34.9039L35.0102 12.9394L35.2519 10.2531L35.3788 8.83026H22.1051Z" fill="white"/>
</g>
<defs>
<clipPath id="clip0_236_281">
<rect width="42.8571" height="48" fill="white" transform="translate(0.695358)"/>
</clipPath>
</defs>
</svg>
