<svg width="58" height="64" viewBox="0 0 58 64" fill="none" xmlns="http://www.w3.org/2000/svg">
<g clip-path="url(#clip0_270_201)">
<path d="M6.23976 57.6023L1.10376 0H57.538L52.3952 57.5931L29.2866 64L6.23976 57.6023Z" fill="#E44F26"/>
<path d="M29.3209 59.104L47.9952 53.9269L52.3884 4.71088H29.3209V59.104Z" fill="#F1662A"/>
<path d="M29.321 26.0732H19.9724L19.3278 18.8389H29.321V11.7737H11.6067L11.7758 13.6709L13.5107 33.1383H29.321V26.0732ZM29.321 44.4206L29.289 44.4297L21.4215 42.3063L20.9187 36.672H13.8261L14.8158 47.7623L29.289 51.7806L29.321 51.7715V44.4206Z" fill="#EBEBEB"/>
<path d="M29.2958 26.0732V33.1383H37.9952L37.1769 42.3017L29.2958 44.4275V51.7783L43.7803 47.7623L43.8855 46.5692L45.5449 27.9703L45.7186 26.0732H29.2958ZM29.2958 11.7737V18.8389H46.3609L46.5026 17.2526L46.8249 13.6709L46.9941 11.7737H29.2958Z" fill="white"/>
</g>
<defs>
<clipPath id="clip0_270_201">
<rect width="57.1429" height="64" fill="white" transform="translate(0.749512)"/>
</clipPath>
</defs>
</svg>
