<svg width="49" height="48" viewBox="0 0 49 48" fill="none" xmlns="http://www.w3.org/2000/svg">
<g clip-path="url(#clip0_236_293)">
<path d="M0.409637 0H48.4096V48H0.409637V0Z" fill="#F7DF1E"/>
<path d="M13.0306 40.1123L16.7038 37.8892C17.4125 39.1457 18.0571 40.2088 19.6035 40.2088C21.0856 40.2088 22.0203 39.6291 22.0203 37.3738V22.0367H26.531V37.4376C26.531 42.1095 23.7924 44.2361 19.7968 44.2361C16.1883 44.2361 14.0938 42.3673 13.0305 40.1119M28.9811 39.6289L32.6538 37.5024C33.6208 39.0814 34.8774 40.2412 37.1004 40.2412C38.9696 40.2412 40.1613 39.3067 40.1613 38.0179C40.1613 36.4714 38.937 35.9235 36.8748 35.0216L35.7474 34.5379C32.493 33.1528 30.3343 31.4128 30.3343 27.7397C30.3343 24.3564 32.9118 21.7787 36.9395 21.7787C39.8071 21.7787 41.8693 22.7777 43.3513 25.3875L39.839 27.6431C39.0656 26.2577 38.2282 25.71 36.9393 25.71C35.6182 25.71 34.7805 26.5477 34.7805 27.6431C34.7805 28.9963 35.6182 29.5444 37.5513 30.3821L38.679 30.8653C42.5133 32.5087 44.672 34.1841 44.672 37.9536C44.672 42.0137 41.4823 44.2367 37.197 44.2367C33.0084 44.2367 30.3018 42.2391 28.9809 39.6291" fill="black"/>
</g>
<defs>
<clipPath id="clip0_236_293">
<rect width="48" height="48" fill="white" transform="translate(0.409637)"/>
</clipPath>
</defs>
</svg>
