<svg width="31" height="64" viewBox="0 0 31 64" fill="none" xmlns="http://www.w3.org/2000/svg">
<g clip-path="url(#clip0_270_233)">
<path d="M20.9233 7.12368C18.2409 3.94105 15.931 0.708523 15.4591 0.0372809C15.4479 0.0255006 15.4344 0.0161216 15.4194 0.00971308C15.4045 0.00330453 15.3884 0 15.3721 0C15.3559 0 15.3398 0.00330453 15.3248 0.00971308C15.3099 0.0161216 15.2964 0.0255006 15.2851 0.0372809C14.8133 0.70864 12.5033 3.94105 9.82079 7.12368C-13.2037 36.4886 13.4472 56.3058 13.4472 56.3058L13.6707 56.455C13.8693 59.5132 14.3662 63.9144 14.3662 63.9144H16.3532C16.3532 63.9144 16.8498 59.5382 17.0486 56.4551L17.2722 56.2809C17.297 56.3059 43.9479 36.4887 20.9233 7.12368ZM15.3596 55.8581C15.3596 55.8581 14.1674 54.8388 13.8445 54.3167V54.2668L15.2851 22.2911C15.2851 22.1917 15.4342 22.1917 15.4342 22.2911L16.8748 54.2668V54.3167C16.5519 54.8388 15.3596 55.8581 15.3596 55.8581Z" fill="#01EC64"/>
</g>
<defs>
<clipPath id="clip0_270_233">
<rect width="29.845" height="64" fill="white" transform="translate(0.449219)"/>
</clipPath>
</defs>
</svg>
