<svg width="65" height="64" viewBox="0 0 65 64" fill="none" xmlns="http://www.w3.org/2000/svg">
<g clip-path="url(#clip0_270_229)">
<path d="M54.1945 42.1147C54.462 41.9562 54.6856 41.7335 54.8452 41.4667C54.998 41.1953 55.0805 40.8901 55.0852 40.5787L55.1172 30.2907C55.1218 29.9793 55.2043 29.674 55.3572 29.4027C55.5175 29.1356 55.7421 28.9128 56.0105 28.7547L61.5838 25.5467C61.8557 25.3957 62.1609 25.3151 62.4718 25.312C62.7832 25.3167 63.0885 25.3992 63.3598 25.552C63.6273 25.7105 63.8509 25.9332 64.0105 26.2C64.1624 26.4716 64.244 26.7769 64.2478 27.088V45.792C64.2468 46.1046 64.1637 46.4115 64.007 46.682C63.8502 46.9524 63.6252 47.177 63.3545 47.3333L42.3065 59.424C42.0374 59.5769 41.7333 59.6573 41.4238 59.6573C41.1144 59.6573 40.8102 59.5769 40.5412 59.424L24.0238 49.9787C23.7519 49.8231 23.5257 49.5987 23.3678 49.328C23.2108 49.0565 23.128 48.7484 23.1278 48.4347V39.0027C23.1296 38.9902 23.1367 38.9867 23.1492 38.992C23.1669 38.9974 23.174 38.9929 23.1705 38.9787V38.968C23.1705 38.9609 23.174 38.9547 23.1812 38.9494L36.7865 31.136C36.7972 31.128 36.7918 31.1094 36.7785 31.1094L36.7678 31.104L36.7652 31.0934L36.7918 21.848C36.7923 21.535 36.7105 21.2274 36.5546 20.956C36.3988 20.6845 36.1743 20.4588 35.9038 20.3014C35.6332 20.146 35.3265 20.0643 35.0145 20.0643C34.7024 20.0643 34.3958 20.146 34.1252 20.3014L24.0158 26.1307C23.7458 26.285 23.4402 26.3662 23.1292 26.3662C22.8181 26.3662 22.5125 26.285 22.2425 26.1307L12.0985 20.2907C11.8283 20.1356 11.5222 20.0543 11.2107 20.0547C10.8992 20.0551 10.5933 20.1373 10.3236 20.2931C10.0538 20.4489 9.82973 20.6728 9.67371 20.9424C9.51768 21.212 9.43519 21.5179 9.43449 21.8294V38.5414C9.43379 38.8527 9.35173 39.1585 9.19644 39.4284C9.04114 39.6983 8.81801 39.9229 8.54916 40.08C8.2786 40.2324 7.9743 40.3149 7.66382 40.32C7.3529 40.317 7.04766 40.2363 6.77582 40.0854L1.14649 36.8667C0.874554 36.7111 0.648322 36.4867 0.490489 36.216C0.333002 35.9437 0.250212 35.6346 0.250489 35.32L0.301156 6.11202C0.302123 5.80092 0.38467 5.49551 0.540558 5.22629C0.696446 4.95706 0.920222 4.73343 1.18955 4.57771C1.45888 4.422 1.76434 4.33965 2.07544 4.33888C2.38654 4.33812 2.6924 4.41896 2.96249 4.57335L22.2425 15.648C22.5125 15.8024 22.8181 15.8836 23.1292 15.8836C23.4402 15.8836 23.7458 15.8024 24.0158 15.648L43.2905 4.57335C43.5623 4.42239 43.8676 4.34173 44.1785 4.33868C44.4899 4.34336 44.7951 4.42586 45.0665 4.57868C45.3343 4.73788 45.558 4.96156 45.7172 5.22935C45.8681 5.50119 45.9488 5.80643 45.9518 6.11735V35.3334C45.9518 35.6454 45.8718 35.952 45.7145 36.224C45.5574 36.4943 45.3321 36.7187 45.0612 36.8747L34.9678 42.688C34.6965 42.8447 34.4712 43.0701 34.3145 43.3414C34.1588 43.6124 34.077 43.9195 34.0772 44.232C34.0778 44.5448 34.1606 44.8519 34.3172 45.1227C34.4757 45.3937 34.7029 45.6181 34.9758 45.7734L40.5438 48.944C40.8135 49.0928 41.1158 49.1725 41.4238 49.176C41.7341 49.1717 42.0384 49.0901 42.3092 48.9387L54.1945 42.1147ZM55.3625 15.9067C55.3627 16.2204 55.4455 16.5285 55.6025 16.8C55.7618 17.0714 55.9899 17.2958 56.2638 17.4507C56.5373 17.6043 56.8464 17.6832 57.16 17.6794C57.4736 17.6757 57.7808 17.5894 58.0505 17.4294L63.3865 14.2294C63.6471 14.0685 63.8642 13.8459 64.0185 13.5814C64.1668 13.3124 64.2465 13.0111 64.2505 12.704V6.18668C64.2495 5.87276 64.1658 5.56464 64.0078 5.29335C63.8485 5.02274 63.6206 4.79892 63.3472 4.64442C63.0738 4.48993 62.7645 4.41023 62.4505 4.41335C62.1367 4.41725 61.8295 4.5037 61.5598 4.66402L56.2265 7.86402C55.9649 8.02455 55.7469 8.24712 55.5918 8.51202C55.4444 8.78117 55.3657 9.0825 55.3625 9.38935V15.9067Z" fill="#007BF8"/>
</g>
<defs>
<clipPath id="clip0_270_229">
<rect width="64" height="64" fill="white" transform="translate(0.250488)"/>
</clipPath>
</defs>
</svg>
