<svg width="58" height="64" viewBox="0 0 58 64" fill="none" xmlns="http://www.w3.org/2000/svg">
<g clip-path="url(#clip0_270_231)">
<path d="M29.1016 63.8813C28.2214 63.8813 27.3998 63.6466 26.6369 63.2358L18.8313 58.5994C17.6576 57.9539 18.2444 57.7192 18.5966 57.6018C20.1811 57.0736 20.4745 56.9562 22.1177 56.0171C22.2939 55.8997 22.5287 55.9584 22.7045 56.0757L28.6908 59.6558C28.9256 59.7731 29.219 59.7731 29.3951 59.6558L52.8115 46.0991C53.0463 45.9817 53.1636 45.7469 53.1636 45.4535V18.3984C53.1636 18.1049 53.0463 17.8702 52.8115 17.7528L29.3951 4.25457C29.1603 4.1372 28.8669 4.1372 28.6908 4.25457L5.27437 17.753C5.03963 17.8704 4.92226 18.1638 4.92226 18.3986V45.4535C4.92226 45.6883 5.03963 45.9817 5.27437 46.0991L11.6715 49.7962C15.1341 51.5568 17.3053 49.5028 17.3053 47.4488V20.7458C17.3053 20.3936 17.5989 20.0415 18.0097 20.0415H21.0029C21.355 20.0415 21.7071 20.335 21.7071 20.7458V47.4486C21.7071 52.0849 19.1834 54.7845 14.7818 54.7845C13.432 54.7845 12.3757 54.7845 9.38277 53.3173L3.22039 49.7962C1.69458 48.9157 0.755615 47.2725 0.755615 45.512V18.4573C0.755615 16.6967 1.69458 15.0535 3.22039 14.173L26.6369 0.616316C28.104 -0.205276 30.0993 -0.205276 31.5664 0.616316L54.9829 14.173C56.5087 15.0533 57.4477 16.6965 57.4477 18.4573V45.5122C57.4477 47.2728 56.5087 48.9159 54.9829 49.7962L31.5664 63.3534C30.8035 63.7055 29.9232 63.8815 29.1016 63.8815M36.3201 45.2775C26.0498 45.2775 23.9371 40.5827 23.9371 36.5918C23.9371 36.2397 24.2306 35.8876 24.6413 35.8876H27.693C28.0451 35.8876 28.3387 36.1224 28.3387 36.4745C28.8082 39.5848 30.158 41.1108 36.3788 41.1108C41.3086 41.1108 43.4215 39.9958 43.4215 37.355C43.4215 35.8289 42.8346 34.7139 35.1464 33.9508C28.7495 33.3053 24.7587 31.8968 24.7587 26.7912C24.7587 22.0373 28.7493 19.2204 35.4399 19.2204C42.9518 19.2204 46.6492 21.8025 47.1186 27.4365C47.1186 27.6127 47.0599 27.7887 46.9426 27.9647C46.8252 28.0821 46.6492 28.1994 46.4731 28.1994H43.4215C43.1278 28.1994 42.8346 27.9647 42.7757 27.6713C42.0715 24.4436 40.2523 23.3873 35.4399 23.3873C30.0408 23.3873 29.3951 25.2652 29.3951 26.6736C29.3951 28.3757 30.158 28.9037 37.4351 29.8426C44.6539 30.7816 48.0576 32.1316 48.0576 37.1787C47.9989 42.3432 43.7736 45.2775 36.3201 45.2775Z" fill="#539E43"/>
</g>
<defs>
<clipPath id="clip0_270_231">
<rect width="56.695" height="64" fill="white" transform="translate(0.75415)"/>
</clipPath>
</defs>
</svg>
