<svg width="49" height="48" viewBox="0 0 49 48" fill="none" xmlns="http://www.w3.org/2000/svg">
<g clip-path="url(#clip0_236_327)">
<path d="M37.563 0H12.063C5.84985 0 0.813049 5.0368 0.813049 11.25V36.75C0.813049 42.9632 5.84985 48 12.063 48H37.563C43.7763 48 48.813 42.9632 48.813 36.75V11.25C48.813 5.0368 43.7763 0 37.563 0Z" fill="#FF6C37"/>
<path d="M32.512 16.6148L23.0358 26.0912L20.3633 23.419C29.6826 14.0998 30.6034 14.9083 32.512 16.6148Z" fill="#EEEEEE"/>
<path d="M23.0357 26.3157C22.9682 26.3157 22.9234 26.2933 22.8784 26.2483L20.1837 23.5761C20.1624 23.5558 20.1454 23.5315 20.1339 23.5044C20.1223 23.4774 20.1163 23.4484 20.1163 23.419C20.1163 23.3896 20.1223 23.3605 20.1339 23.3335C20.1454 23.3065 20.1624 23.2821 20.1837 23.2618C29.6601 13.7852 30.648 14.6835 32.6468 16.48C32.6918 16.525 32.7141 16.57 32.7141 16.6373C32.7141 16.7048 32.6918 16.7496 32.6468 16.7942L23.1703 26.2483C23.148 26.2933 23.0805 26.3157 23.0357 26.3157ZM20.6777 23.419L23.0357 25.7768L32.1752 16.6373C30.5136 15.1551 29.3907 14.706 20.6777 23.419Z" fill="#FF6C37"/>
<path d="M25.7528 28.8084L23.1703 26.226L32.6468 16.7498C35.1844 19.3095 31.3892 23.4639 25.7528 28.8084Z" fill="#EEEEEE"/>
<path d="M25.7528 29.0331C25.6853 29.0331 25.6407 29.0106 25.5957 28.9656L23.0132 26.3831C22.9682 26.3383 22.9682 26.2933 22.9682 26.226C22.9682 26.1585 22.9907 26.1137 23.0357 26.0687L32.512 16.5925C32.5323 16.5712 32.5567 16.5542 32.5837 16.5426C32.6107 16.5311 32.6398 16.5251 32.6692 16.5251C32.6986 16.5251 32.7277 16.5311 32.7547 16.5426C32.7817 16.5542 32.8061 16.5712 32.8264 16.5925C33.1131 16.8578 33.3397 17.1814 33.4908 17.5417C33.6418 17.9019 33.7139 18.2904 33.7022 18.6808C33.6574 21.1733 30.8279 24.3396 25.9324 28.9656C25.8651 29.0106 25.7976 29.0331 25.7528 29.0331ZM23.4848 26.226C24.9218 27.6855 25.5284 28.2696 25.7528 28.494C29.5255 24.9011 33.1857 21.2183 33.2082 18.6808C33.2307 18.097 33.0062 17.5131 32.6243 17.0638L23.4848 26.226Z" fill="#FF6C37"/>
<path d="M20.4083 23.4863L22.3171 25.395C22.3619 25.44 22.3619 25.4848 22.3171 25.5298C22.2946 25.5523 22.2946 25.5523 22.2722 25.5523L18.3197 26.4056C18.1178 26.4281 17.9382 26.2933 17.8932 26.0912C17.8707 25.9789 17.9157 25.8668 17.9832 25.7993L20.2735 23.5088C20.3185 23.4638 20.3858 23.4413 20.4083 23.4863Z" fill="#EEEEEE"/>
<path d="M18.2524 26.6303C17.9157 26.6303 17.6685 26.3606 17.6685 26.0237C17.6685 25.8668 17.736 25.7095 17.8484 25.5971L20.1387 23.3066C20.2735 23.1943 20.4533 23.1943 20.5879 23.3066L22.4967 25.2154C22.6313 25.3277 22.6313 25.5298 22.4967 25.6645C22.4517 25.7095 22.4069 25.732 22.3394 25.7545L18.3872 26.6078C18.3422 26.6078 18.2972 26.6303 18.2524 26.6303ZM20.341 23.7332L18.1403 25.9339C18.0953 25.9789 18.0728 26.0462 18.1178 26.1135C18.1403 26.181 18.2074 26.2035 18.2749 26.181L21.9801 25.3725L20.341 23.7332Z" fill="#FF6C37"/>
<path d="M37.5197 11.3602C36.0825 9.96805 33.7695 10.0129 32.3772 11.4726C30.985 12.9321 31.03 15.2226 32.4895 16.6149C33.0657 17.1717 33.8099 17.522 34.6061 17.6114C35.4024 17.7008 36.2058 17.5241 36.891 17.109L34.3309 14.5489L37.5197 11.3602Z" fill="#EEEEEE"/>
<path d="M35.0046 17.85C32.8714 17.85 31.1423 16.1209 31.1423 13.9875C31.1423 11.8541 32.8714 10.125 35.0046 10.125C35.9927 10.125 36.9584 10.5068 37.6769 11.2029C37.7219 11.2479 37.7444 11.2929 37.7444 11.3601C37.7444 11.4276 37.7219 11.4726 37.6769 11.5174L34.6454 14.5489L37.0257 16.9292C37.1157 17.0192 37.1157 17.1538 37.0257 17.2436L36.9809 17.2886C36.397 17.6477 35.7008 17.85 35.0046 17.85ZM35.0046 10.5967C33.1184 10.5967 31.5914 12.1236 31.6139 14.01C31.6139 15.8963 33.1407 17.4233 35.0271 17.4009C35.5437 17.4009 36.0601 17.2884 36.5316 17.0415L34.1738 14.7062C34.1288 14.6612 34.1065 14.6162 34.1065 14.5489C34.1065 14.4814 34.1288 14.4366 34.1738 14.3917L37.183 11.3826C36.5766 10.8662 35.8131 10.5967 35.0046 10.5967Z" fill="#FF6C37"/>
<path d="M37.5871 11.4276L37.5422 11.3826L34.3309 14.5489L36.8686 17.0865C37.1157 16.9292 37.3624 16.7498 37.5647 16.5476C37.905 16.2144 38.1757 15.8169 38.3611 15.3782C38.5466 14.9396 38.6432 14.4685 38.6453 13.9923C38.6473 13.516 38.5549 13.0441 38.3732 12.6038C38.1916 12.1636 37.9244 11.7638 37.5871 11.4276Z" fill="#EEEEEE"/>
<path d="M36.891 17.3334C36.8235 17.3334 36.7787 17.3109 36.7337 17.2659L34.1738 14.706C34.1288 14.661 34.1065 14.6162 34.1065 14.5489C34.1065 14.4814 34.1288 14.4364 34.1738 14.3916L37.3624 11.2031C37.4524 11.1131 37.587 11.1131 37.6768 11.2031L37.7443 11.2481C39.2488 12.7524 39.2489 15.1777 37.7669 16.7049C37.5422 16.9294 37.2951 17.1315 37.0257 17.2886C36.9584 17.3111 36.9135 17.3334 36.891 17.3334ZM34.6453 14.5491L36.9135 16.8171C37.0932 16.7049 37.2728 16.5476 37.4074 16.4128C38.6875 15.1327 38.7548 13.0446 37.5197 11.6972L34.6453 14.5491Z" fill="#FF6C37"/>
<path d="M32.8939 17.0188C32.6347 16.76 32.2834 16.6146 31.9171 16.6146C31.5507 16.6146 31.1994 16.76 30.9402 17.0188L22.4742 25.4848L23.8891 26.8995L32.8489 19.04C33.4328 18.5458 33.4776 17.67 32.9837 17.0863C32.9387 17.0638 32.9162 17.0413 32.8939 17.0188Z" fill="#EEEEEE"/>
<path d="M23.8665 27.1241C23.7992 27.1241 23.7542 27.1016 23.7092 27.0568L22.2945 25.6421C22.2733 25.6218 22.2563 25.5974 22.2447 25.5704C22.2331 25.5434 22.2272 25.5143 22.2272 25.4849C22.2272 25.4555 22.2331 25.4264 22.2447 25.3994C22.2563 25.3723 22.2733 25.348 22.2945 25.3277L30.7604 16.8617C30.909 16.7122 31.0857 16.5936 31.2803 16.5127C31.475 16.4318 31.6837 16.3901 31.8945 16.3901C32.1052 16.3901 32.3139 16.4318 32.5086 16.5127C32.7032 16.5936 32.8799 16.7122 33.0285 16.8617C33.178 17.0103 33.2966 17.187 33.3776 17.3816C33.4585 17.5763 33.5002 17.785 33.5002 17.9958C33.5002 18.2066 33.4585 18.4153 33.3776 18.6099C33.2966 18.8045 33.178 18.9812 33.0285 19.1299L32.9612 19.1972L24.0012 27.0568C23.9789 27.1016 23.9339 27.1241 23.8665 27.1241ZM22.7886 25.4848L23.889 26.5852L32.6918 18.8602C33.1857 18.456 33.2307 17.715 32.8264 17.2211C32.4222 16.7271 31.6812 16.6822 31.1871 17.0861C31.1648 17.1086 31.1423 17.1311 31.0973 17.1536L22.7886 25.4848Z" fill="#FF6C37"/>
<path d="M15.9844 35.1188C15.8944 35.1636 15.8496 35.2534 15.8719 35.3432L16.2539 36.9602C16.3439 37.1846 16.2089 37.4543 15.9619 37.5216C15.7823 37.5889 15.5804 37.5216 15.4681 37.3869L12.9977 34.9391L21.0595 26.8774L23.8441 26.9222L25.7303 28.8086C25.2812 29.1904 22.564 31.8176 15.9844 35.1188Z" fill="#EEEEEE"/>
<path d="M15.8048 37.7458C15.6252 37.7458 15.4456 37.6785 15.3332 37.5439L12.8854 35.0961C12.8404 35.0513 12.8181 35.0063 12.8181 34.939C12.8181 34.8717 12.8406 34.8266 12.8856 34.7816L20.9472 26.7201C20.9922 26.6751 21.0595 26.6526 21.1045 26.6526L23.8891 26.6976C23.9564 26.6976 24.0012 26.7201 24.046 26.7649L25.9324 28.6511C25.9774 28.6961 25.9997 28.7635 25.9997 28.8308C25.9997 28.8983 25.9774 28.9431 25.9099 28.9881L25.7528 29.1229C23.3725 31.2111 20.1387 33.2997 16.1191 35.2982L16.501 36.8925C16.5683 37.1845 16.4335 37.4989 16.1641 37.656C16.0292 37.7233 15.9171 37.7458 15.8048 37.7458ZM13.3345 34.939L15.6477 37.2295C15.7148 37.3418 15.8496 37.3866 15.9619 37.3193C16.0742 37.252 16.1192 37.1171 16.0519 37.0048L15.6702 35.388C15.6252 35.1859 15.7148 35.0063 15.8946 34.9165C19.8692 32.9179 23.0806 30.852 25.4384 28.8085L23.7767 27.1466L21.1943 27.1017L13.3345 34.939Z" fill="#FF6C37"/>
<path d="M11.089 36.8702L13.0202 34.939L15.8946 37.8133L11.3136 37.4991C11.1115 37.4766 10.9767 37.297 10.9992 37.0947C10.9992 37.0048 11.0215 36.915 11.089 36.8702Z" fill="#EEEEEE"/>
<path d="M15.8946 38.0154L11.2911 37.701C10.9542 37.6785 10.7295 37.3867 10.752 37.0498C10.7745 36.915 10.8195 36.7804 10.9319 36.6905L12.8631 34.7593C12.8834 34.738 12.9077 34.7211 12.9347 34.7095C12.9618 34.6979 12.9908 34.6919 13.0202 34.6919C13.0496 34.6919 13.0787 34.6979 13.1057 34.7095C13.1327 34.7211 13.1571 34.738 13.1774 34.7593L16.0517 37.6337C16.1192 37.701 16.1417 37.7908 16.0967 37.8808C16.0517 37.9706 15.9842 38.0154 15.8946 38.0154ZM13.0202 35.2534L11.2463 37.0273C11.1788 37.0723 11.1788 37.1846 11.2463 37.2294C11.2688 37.2519 11.2913 37.2744 11.3361 37.2744L15.3107 37.5439L13.0202 35.2534ZM20.2735 27.9103C20.1387 27.9103 20.0489 27.798 20.0489 27.6857C20.0489 27.6184 20.0713 27.5735 20.1163 27.5285L22.2945 25.3504C22.3148 25.329 22.3392 25.3121 22.3662 25.3005C22.3932 25.2889 22.4223 25.2829 22.4518 25.2829C22.4812 25.2829 22.5103 25.2889 22.5373 25.3005C22.5643 25.3121 22.5887 25.329 22.609 25.3504L24.0237 26.765C24.091 26.8324 24.1135 26.8997 24.091 26.9897C24.0685 27.057 24.0012 27.1243 23.9115 27.1468L20.3185 27.9103H20.2735ZM22.4517 25.8219L20.9697 27.3041L23.3948 26.7874L22.4517 25.8219Z" fill="#FF6C37"/>
<path d="M23.844 26.922L21.3739 27.461C21.1943 27.506 21.0145 27.3937 20.9697 27.2141C20.9472 27.1018 20.9697 26.9895 21.0595 26.8997L22.4292 25.5298L23.844 26.922Z" fill="#EEEEEE"/>
<path d="M21.3289 27.6857C21.255 27.6865 21.1817 27.6724 21.1132 27.6445C21.0448 27.6166 20.9826 27.5752 20.9303 27.523C20.878 27.4707 20.8367 27.4085 20.8087 27.34C20.7808 27.2716 20.7668 27.1983 20.7675 27.1243C20.7675 26.9672 20.8349 26.8324 20.9247 26.7203L22.2945 25.3504C22.3148 25.3291 22.3392 25.3121 22.3662 25.3005C22.3933 25.2889 22.4224 25.2829 22.4518 25.2829C22.4812 25.2829 22.5103 25.2889 22.5373 25.3005C22.5643 25.3121 22.5887 25.3291 22.609 25.3504L24.0237 26.7651C24.091 26.8324 24.1135 26.8997 24.091 26.9897C24.0685 27.057 24.0012 27.1243 23.9115 27.1468L21.4412 27.6857H21.3289ZM22.4517 25.8219L21.2391 27.0345C21.1943 27.0795 21.1943 27.1243 21.2166 27.1693C21.2391 27.2141 21.2841 27.2366 21.3514 27.2366L23.4173 26.7874L22.4517 25.8219ZM37.6095 13.5831C37.5647 13.4485 37.4074 13.3811 37.2726 13.4261C37.138 13.4708 37.0707 13.6281 37.1157 13.7629C37.1157 13.7854 37.138 13.8079 37.138 13.8302C37.2726 14.0998 37.228 14.4366 37.0482 14.6835C36.9584 14.796 36.9809 14.9531 37.0707 15.043C37.183 15.1326 37.3401 15.1105 37.4299 14.998C37.7669 14.5712 37.8342 14.0323 37.6095 13.5831Z" fill="#FF6C37"/>
</g>
<defs>
<clipPath id="clip0_236_327">
<rect width="48" height="48" fill="white" transform="translate(0.813049)"/>
</clipPath>
</defs>
</svg>
