<svg width="65" height="64" viewBox="0 0 65 64" fill="none" xmlns="http://www.w3.org/2000/svg">
<g clip-path="url(#clip0_270_247)">
<path d="M49.7473 0H15.7473C7.46304 0 0.747314 6.71573 0.747314 15V49C0.747314 57.2843 7.46304 64 15.7473 64H49.7473C58.0316 64 64.7473 57.2843 64.7473 49V15C64.7473 6.71573 58.0316 0 49.7473 0Z" fill="#FF6C37"/>
<path d="M43.0125 22.153L30.3775 34.7883L26.8142 31.2253C39.24 18.7998 40.4677 19.8778 43.0125 22.153Z" fill="#EEEEEE"/>
<path d="M30.3777 35.0875C30.2877 35.0875 30.2279 35.0577 30.1679 34.9977L26.5749 31.4347C26.5465 31.4077 26.5239 31.3752 26.5085 31.3392C26.4931 31.3032 26.4851 31.2644 26.4851 31.2252C26.4851 31.1861 26.4931 31.1473 26.5085 31.1113C26.5239 31.0753 26.5465 31.0428 26.5749 31.0157C39.2102 18.3802 40.5274 19.578 43.1924 21.9732C43.2524 22.0332 43.2822 22.0932 43.2822 22.183C43.2822 22.273 43.2524 22.3327 43.1924 22.3922L30.5572 34.9977C30.5274 35.0577 30.4374 35.0875 30.3777 35.0875ZM27.2337 31.2252L30.3777 34.369L42.5637 22.183C40.3482 20.2067 38.8509 19.608 27.2337 31.2252Z" fill="#FF6C37"/>
<path d="M34.0004 38.4113L30.5571 34.968L43.1924 22.333C46.5759 25.746 41.5156 31.2853 34.0004 38.4113Z" fill="#EEEEEE"/>
<path d="M34.0003 38.7108C33.9103 38.7108 33.8508 38.6808 33.7908 38.6208L30.3476 35.1775C30.2876 35.1178 30.2876 35.0578 30.2876 34.968C30.2876 34.878 30.3176 34.8183 30.3776 34.7583L43.0126 22.1233C43.0396 22.0949 43.0722 22.0723 43.1082 22.0569C43.1442 22.0414 43.183 22.0334 43.2222 22.0334C43.2614 22.0334 43.3002 22.0414 43.3363 22.0569C43.3723 22.0723 43.4048 22.0949 43.4318 22.1233C43.8142 22.477 44.1162 22.9086 44.3176 23.3889C44.5191 23.8692 44.6152 24.3872 44.5996 24.9078C44.5398 28.231 40.7671 32.4528 34.2398 38.6208C34.1501 38.6808 34.0601 38.7108 34.0003 38.7108ZM30.9763 34.968C32.8923 36.914 33.7011 37.6928 34.0003 37.992C39.0306 33.2015 43.9108 28.291 43.9408 24.9078C43.9708 24.1293 43.6716 23.3508 43.1623 22.7518L30.9763 34.968Z" fill="#FF6C37"/>
<path d="M26.8742 31.315L29.4192 33.86C29.479 33.92 29.479 33.9797 29.4192 34.0397C29.3892 34.0697 29.3892 34.0697 29.3595 34.0697L24.0895 35.2075C23.8202 35.2375 23.5807 35.0577 23.5207 34.7882C23.4907 34.6385 23.5507 34.489 23.6407 34.399L26.6945 31.345C26.7545 31.285 26.8442 31.255 26.8742 31.315Z" fill="#EEEEEE"/>
<path d="M23.9999 35.507C23.5509 35.507 23.2214 35.1475 23.2214 34.6983C23.2214 34.489 23.3114 34.2793 23.4612 34.1295L26.5149 31.0755C26.6947 30.9258 26.9344 30.9258 27.1139 31.0755L29.6589 33.6205C29.8384 33.7703 29.8384 34.0398 29.6589 34.2193C29.5989 34.2793 29.5392 34.3093 29.4492 34.3393L24.1797 35.477C24.1197 35.477 24.0597 35.507 23.9999 35.507ZM26.7847 31.6443L23.8504 34.5785C23.7904 34.6385 23.7604 34.7283 23.8204 34.818C23.8504 34.908 23.9399 34.938 24.0299 34.908L28.9702 33.83L26.7847 31.6443Z" fill="#FF6C37"/>
<path d="M49.6895 15.147C47.7733 13.2908 44.6893 13.3505 42.8328 15.2968C40.9765 17.2428 41.0365 20.2968 42.9825 22.1533C43.7508 22.8956 44.7431 23.3627 45.8047 23.4819C46.8663 23.6011 47.9376 23.3655 48.8513 22.812L45.4378 19.3985L49.6895 15.147Z" fill="#EEEEEE"/>
<path d="M46.336 23.8C43.4918 23.8 41.1863 21.4945 41.1863 18.65C41.1863 15.8055 43.4918 13.5 46.336 13.5C47.6535 13.5 48.941 14.009 49.899 14.9373C49.959 14.9973 49.989 15.0573 49.989 15.1468C49.989 15.2368 49.959 15.2967 49.899 15.3565L45.857 19.3985L49.0308 22.5723C49.1508 22.6923 49.1508 22.8718 49.0308 22.9915L48.971 23.0515C48.1925 23.5303 47.2643 23.8 46.336 23.8ZM46.336 14.129C43.821 14.129 41.785 16.1648 41.815 18.68C41.815 21.195 43.8508 23.231 46.366 23.2013C47.0548 23.2013 47.7433 23.0513 48.372 22.722L45.2283 19.6082C45.1683 19.5482 45.1385 19.4883 45.1385 19.3985C45.1385 19.3085 45.1683 19.2487 45.2283 19.189L49.2405 15.1768C48.432 14.4883 47.414 14.129 46.336 14.129Z" fill="#FF6C37"/>
<path d="M49.7792 15.2368L49.7195 15.1768L45.4377 19.3985L48.8212 22.782C49.1507 22.5723 49.4797 22.333 49.7495 22.0635C50.2031 21.6192 50.564 21.0892 50.8113 20.5043C51.0586 19.9195 51.1874 19.2913 51.1902 18.6563C51.1929 18.0214 51.0697 17.3921 50.8275 16.8051C50.5853 16.2181 50.229 15.685 49.7792 15.2368Z" fill="#EEEEEE"/>
<path d="M48.8514 23.1112C48.7614 23.1112 48.7017 23.0812 48.6417 23.0212L45.2284 19.608C45.1684 19.548 45.1387 19.4882 45.1387 19.3985C45.1387 19.3085 45.1684 19.2485 45.2284 19.1887L49.4799 14.9375C49.5999 14.8175 49.7794 14.8175 49.8992 14.9375L49.9892 14.9975C51.9952 17.0032 51.9952 20.237 50.0192 22.2732C49.7197 22.5725 49.3902 22.842 49.0309 23.0515C48.9412 23.0815 48.8814 23.1112 48.8514 23.1112ZM45.8572 19.3987L48.8814 22.4227C49.1209 22.2732 49.3604 22.0635 49.5399 21.8837C51.2467 20.177 51.3364 17.3927 49.6897 15.5962L45.8572 19.3987Z" fill="#FF6C37"/>
<path d="M43.5219 22.6917C43.1763 22.3466 42.7078 22.1528 42.2194 22.1528C41.731 22.1528 41.2625 22.3466 40.9169 22.6917L29.6289 33.9797L31.5154 35.866L43.4619 25.3867C44.2404 24.7277 44.3002 23.56 43.6417 22.7817C43.5817 22.7517 43.5517 22.7217 43.5219 22.6917Z" fill="#EEEEEE"/>
<path d="M31.4854 36.1655C31.3956 36.1655 31.3356 36.1355 31.2756 36.0757L29.3894 34.1895C29.361 34.1624 29.3384 34.1299 29.323 34.0939C29.3075 34.0579 29.2996 34.0191 29.2996 33.9799C29.2996 33.9407 29.3075 33.9019 29.323 33.8658C29.3384 33.8298 29.361 33.7973 29.3894 33.7702L40.6771 22.4822C40.8753 22.283 41.111 22.1249 41.3705 22.017C41.63 21.9091 41.9082 21.8535 42.1893 21.8535C42.4703 21.8535 42.7486 21.9091 43.0081 22.017C43.2676 22.1249 43.5032 22.283 43.7014 22.4822C43.9007 22.6804 44.0588 22.916 44.1667 23.1755C44.2747 23.435 44.3302 23.7133 44.3302 23.9944C44.3302 24.2754 44.2747 24.5537 44.1667 24.8132C44.0588 25.0727 43.9007 25.3083 43.7014 25.5065L43.6116 25.5962L31.6649 36.0757C31.6351 36.1355 31.5751 36.1655 31.4854 36.1655ZM30.0481 33.9797L31.5154 35.447L43.2524 25.147C43.9109 24.608 43.9709 23.62 43.4319 22.9615C42.8929 22.3027 41.9049 22.243 41.2461 22.7815C41.2164 22.8115 41.1864 22.8415 41.1264 22.8715L30.0481 33.9797Z" fill="#FF6C37"/>
<path d="M20.9759 46.825C20.8559 46.8847 20.7962 47.0045 20.8259 47.1242L21.3352 49.2802C21.4552 49.5795 21.2752 49.939 20.9459 50.0287C20.7064 50.1185 20.4372 50.0287 20.2874 49.8492L16.9937 46.5855L27.7427 35.8365L31.4554 35.8962L33.9704 38.4115C33.3717 38.9205 29.7487 42.4235 20.9759 46.825Z" fill="#EEEEEE"/>
<path d="M20.7364 50.3277C20.4969 50.3277 20.2574 50.238 20.1077 50.0585L16.8439 46.7947C16.7839 46.735 16.7542 46.675 16.7542 46.5852C16.7542 46.4955 16.7842 46.4355 16.8442 46.3755L27.5929 35.6267C27.6529 35.5667 27.7427 35.5367 27.8027 35.5367L31.5154 35.5967C31.6051 35.5967 31.6649 35.6267 31.7246 35.6865L34.2399 38.2015C34.2999 38.2615 34.3296 38.3512 34.3296 38.441C34.3296 38.531 34.2999 38.5907 34.2099 38.6507L34.0004 38.8305C30.8266 41.6147 26.5149 44.3995 21.1554 47.0642L21.6646 49.19C21.7544 49.5792 21.5747 49.9985 21.2154 50.208C21.0357 50.2977 20.8862 50.3277 20.7364 50.3277ZM17.4426 46.5852L20.5269 49.6392C20.6164 49.789 20.7961 49.8487 20.9459 49.759C21.0956 49.6692 21.1557 49.4895 21.0659 49.3397L20.5569 47.184C20.4969 46.9145 20.6164 46.675 20.8561 46.5552C26.1556 43.8905 30.4374 41.136 33.5812 38.4112L31.3657 36.1955L27.9224 36.1355L17.4426 46.5852Z" fill="#FF6C37"/>
<path d="M14.4485 49.1603L17.0235 46.5853L20.856 50.4178L14.748 49.9988C14.4785 49.9688 14.2987 49.7293 14.3287 49.4595C14.3287 49.3398 14.3585 49.22 14.4485 49.1603Z" fill="#EEEEEE"/>
<path d="M20.8561 50.6873L14.7181 50.268C14.2689 50.238 13.9694 49.849 13.9994 49.3998C14.0294 49.22 14.0894 49.0405 14.2391 48.9208L16.8141 46.3458C16.8411 46.3174 16.8736 46.2948 16.9097 46.2794C16.9457 46.2639 16.9844 46.256 17.0236 46.256C17.0628 46.256 17.1016 46.2639 17.1376 46.2794C17.1736 46.2948 17.2061 46.3174 17.2331 46.3458L21.0656 50.1783C21.1556 50.268 21.1856 50.3878 21.1256 50.5078C21.0656 50.6275 20.9756 50.6873 20.8561 50.6873ZM17.0236 47.0045L14.6584 49.3698C14.5684 49.4298 14.5684 49.5795 14.6584 49.6393C14.6884 49.6693 14.7184 49.6993 14.7781 49.6993L20.0776 50.0585L17.0236 47.0045ZM26.6946 37.2138C26.5149 37.2138 26.3951 37.064 26.3951 36.9143C26.3951 36.8245 26.4251 36.7648 26.4851 36.7048L29.3894 33.8005C29.4164 33.7721 29.4489 33.7495 29.485 33.734C29.521 33.7185 29.5598 33.7106 29.599 33.7106C29.6382 33.7106 29.677 33.7185 29.7131 33.734C29.7491 33.7495 29.7816 33.7721 29.8086 33.8005L31.6949 35.6868C31.7846 35.7765 31.8146 35.8663 31.7846 35.9863C31.7546 36.076 31.6649 36.1658 31.5454 36.1958L26.7546 37.2138H26.6946ZM29.5989 34.4293L27.6229 36.4055L30.8564 35.7165L29.5989 34.4293Z" fill="#FF6C37"/>
<path d="M31.4554 35.896L28.1619 36.6147C27.9224 36.6747 27.6826 36.525 27.6229 36.2855C27.5929 36.1357 27.6229 35.986 27.7426 35.8662L29.5689 34.0397L31.4554 35.896Z" fill="#EEEEEE"/>
<path d="M28.1018 36.9142C28.0032 36.9152 27.9055 36.8966 27.8142 36.8593C27.7229 36.822 27.64 36.7669 27.5703 36.6972C27.5006 36.6275 27.4455 36.5446 27.4082 36.4533C27.371 36.3621 27.3523 36.2643 27.3533 36.1657C27.3533 35.9562 27.4431 35.7765 27.5628 35.627L29.3893 33.8005C29.4163 33.7721 29.4488 33.7494 29.4849 33.734C29.5209 33.7185 29.5597 33.7105 29.5989 33.7105C29.6381 33.7105 29.677 33.7185 29.713 33.734C29.749 33.7494 29.7815 33.7721 29.8086 33.8005L31.6948 35.6867C31.7846 35.7765 31.8146 35.8662 31.7846 35.9862C31.7546 36.076 31.6648 36.1657 31.5453 36.1957L28.2516 36.9142H28.1018ZM29.5988 34.4292L27.9821 36.046C27.9223 36.106 27.9223 36.1657 27.9521 36.2257C27.9821 36.2855 28.0421 36.3155 28.1318 36.3155L30.8863 35.7165L29.5988 34.4292ZM49.8093 18.1107C49.7496 17.9312 49.5398 17.8415 49.3601 17.9015C49.1806 17.961 49.0908 18.1707 49.1508 18.3505C49.1508 18.3805 49.1806 18.4105 49.1806 18.4402C49.3601 18.7997 49.3006 19.2487 49.0608 19.578C48.9411 19.728 48.9711 19.9375 49.0908 20.0572C49.2406 20.1767 49.4501 20.1472 49.5698 19.9972C50.0191 19.4282 50.1088 18.7097 49.8093 18.1107Z" fill="#FF6C37"/>
</g>
<defs>
<clipPath id="clip0_270_247">
<rect width="64" height="64" fill="white" transform="translate(0.747314)"/>
</clipPath>
</defs>
</svg>
