<svg width="53" height="64" viewBox="0 0 53 64" fill="none" xmlns="http://www.w3.org/2000/svg">
<g clip-path="url(#clip0_270_235)">
<path fill-rule="evenodd" clip-rule="evenodd" d="M47.6544 50.5997L19.4015 59.0227C19.2047 59.0824 18.9957 59.09 18.795 59.0448C18.5944 58.9996 18.4089 58.9031 18.2566 58.7648C18.1044 58.6265 17.9906 58.4511 17.9264 58.2556C17.8622 58.0602 17.8498 57.8515 17.8904 57.6498L27.9854 8.91696C28.0281 8.7179 28.1321 8.53721 28.2828 8.40029C28.4335 8.26337 28.6233 8.1771 28.8255 8.1536C29.0277 8.1301 29.2322 8.17056 29.4103 8.26928C29.5884 8.368 29.731 8.52003 29.8182 8.70401L48.5062 48.7148C48.59 48.8927 48.6342 49.0866 48.6357 49.2833C48.6373 49.4799 48.5961 49.6745 48.5152 49.8537C48.4342 50.0329 48.3153 50.1924 48.1667 50.3212C48.0181 50.45 47.8433 50.545 47.6544 50.5997ZM52.5003 48.6106L30.8671 2.28362C30.6014 1.71206 30.1849 1.22378 29.6624 0.871297C29.1398 0.518819 28.5311 0.315492 27.9016 0.283193C27.272 0.239124 26.6426 0.370072 26.0828 0.661549C25.523 0.953026 25.0548 1.39367 24.7299 1.93473L1.27081 40.2645C0.912431 40.8445 0.726016 41.5143 0.733234 42.1961C0.740453 42.8778 0.941009 43.5435 1.31159 44.1158L12.784 62.0336C13.2168 62.7026 13.8544 63.2137 14.6017 63.4906C15.3489 63.7674 16.1656 63.7951 16.9299 63.5696L50.2325 53.6399C50.7355 53.4934 51.2007 53.2396 51.5962 52.896C51.9917 52.5524 52.308 52.1272 52.5233 51.6496C52.7386 51.172 52.8478 50.6534 52.8435 50.1296C52.8391 49.6057 52.7212 49.089 52.498 48.6151L52.5003 48.6106Z" fill="white"/>
</g>
<defs>
<clipPath id="clip0_270_235">
<rect width="52.6726" height="64" fill="white" transform="translate(0.294189)"/>
</clipPath>
</defs>
</svg>
