<svg width="55" height="48" viewBox="0 0 55 48" fill="none" xmlns="http://www.w3.org/2000/svg">
<g clip-path="url(#clip0_236_296)">
<path d="M44.7222 15.5419C44.1486 15.3451 43.5702 15.1628 42.9874 14.9951C43.0853 14.5951 43.1754 14.2 43.2554 13.8118C44.5687 7.43681 43.7102 2.30102 40.7778 0.610069C37.9662 -1.01098 33.3681 0.679332 28.7243 4.72081C28.2666 5.11981 27.8191 5.53032 27.3822 5.95196C27.0897 5.6716 26.792 5.39668 26.4893 5.12733C21.6224 0.806069 16.7441 -1.01519 13.8148 0.680595C11.0058 2.3067 10.174 7.1347 11.3563 13.1764C11.4739 13.7747 11.6067 14.37 11.7546 14.9616C11.0641 15.1579 10.3978 15.3667 9.76008 15.589C4.05397 17.5785 0.409973 20.6962 0.409973 23.9301C0.409973 27.2701 4.32197 30.6202 10.2651 32.6515C10.747 32.8155 11.2328 32.9675 11.7222 33.1073C11.5633 33.7445 11.4222 34.3861 11.299 35.0311C10.1719 40.968 11.0521 45.6819 13.8536 47.2976C16.747 48.9663 21.6034 47.2513 26.3321 43.1176C26.7155 42.7816 27.0905 42.436 27.4567 42.0812C27.9299 42.5378 28.4157 42.981 28.9136 43.4105C33.4942 47.352 38.018 48.9435 40.8167 47.3233C43.7074 45.6499 44.647 40.5859 43.4272 34.4248C43.3311 33.9421 43.2234 33.4618 43.1041 32.9844C43.4451 32.8833 43.7799 32.7793 44.1062 32.6711C50.2847 30.6242 54.3047 27.3147 54.3047 23.9301C54.3047 20.6844 50.543 17.5456 44.7222 15.5419ZM43.3822 30.4859C43.0872 30.5833 42.7854 30.6776 42.4769 30.769C41.7948 28.6096 40.8744 26.3136 39.7479 23.9412C40.8228 21.6254 41.7079 19.3587 42.3708 17.2134C42.9222 17.373 43.4571 17.5412 43.9729 17.7187C48.9603 19.4358 52.0024 21.9741 52.0024 23.9301C52.0024 26.0134 48.7169 28.7181 43.3822 30.4859ZM41.1687 34.872C41.7081 37.5962 41.7849 40.0593 41.4277 41.985C41.1068 43.7153 40.4613 44.8688 39.663 45.3309C37.9647 46.3141 34.3325 45.0362 30.4152 41.6652C29.9522 41.2659 29.5003 40.8538 29.0601 40.4294C30.5788 38.7686 32.0965 36.8379 33.5778 34.6934C36.1832 34.4623 38.6447 34.0842 40.8769 33.5682C40.9871 34.012 41.0844 34.4466 41.1687 34.872ZM18.7839 45.161C17.1245 45.7469 15.8028 45.7638 15.0039 45.3031C13.3039 44.3227 12.5971 40.5377 13.5611 35.4606C13.6757 34.8607 13.8069 34.264 13.9546 33.6713C16.1622 34.1598 18.6058 34.5109 21.2173 34.7227C22.7087 36.821 24.2702 38.7496 25.8439 40.4385C25.5094 40.7621 25.1671 41.0774 24.8171 41.3842C22.726 43.212 20.6306 44.5088 18.7839 45.161ZM11.01 30.473C8.38197 29.5747 6.21166 28.4073 4.72408 27.1334C3.38724 25.9888 2.7125 24.8522 2.7125 23.9301C2.7125 21.9675 5.63818 19.4644 10.518 17.7631C11.1102 17.5568 11.73 17.3621 12.3731 17.1793C13.0477 19.373 13.9323 21.6667 14.9999 23.9861C13.9184 26.3398 13.0211 28.6701 12.3401 30.8896C11.8934 30.7617 11.4499 30.6227 11.01 30.473ZM13.6159 12.7341C12.603 7.55786 13.2757 3.65323 14.9685 2.67323C16.7714 1.62944 20.7584 3.11765 24.9607 6.84902C25.2347 7.09288 25.5043 7.34169 25.7693 7.59533C24.2034 9.2768 22.6563 11.1911 21.1782 13.277C18.6434 13.512 16.2171 13.8892 13.9864 14.3947C13.8489 13.8444 13.7254 13.2906 13.6159 12.7341ZM36.8637 18.4749C36.3368 17.5648 35.7903 16.6661 35.2247 15.7795C36.9443 15.997 38.5919 16.2856 40.139 16.6385C39.6746 18.1273 39.0957 19.6838 38.4142 21.2795C37.9161 20.3344 37.3991 19.3994 36.8637 18.4749ZM27.3832 9.24102C28.4451 10.3915 29.5087 11.676 30.5548 13.0696C28.4327 12.9694 26.3071 12.969 24.1849 13.0684C25.2321 11.6875 26.3047 10.4048 27.3832 9.24102ZM17.842 18.4905C17.3132 19.4075 16.8059 20.3367 16.3205 21.2774C15.6502 19.6873 15.0765 18.1238 14.6081 16.6139C16.1458 16.2699 17.7856 15.9886 19.4942 15.7751C18.9223 16.6671 18.3714 17.5726 17.842 18.4905ZM19.5432 32.2486C17.778 32.0515 16.1136 31.7848 14.5763 31.4501C15.0521 29.9132 15.6384 28.3164 16.3232 26.6922C16.8106 27.6336 17.32 28.5634 17.851 29.4808C18.3971 30.424 18.9626 31.3478 19.5432 32.2486ZM27.4468 38.7812C26.3554 37.604 25.267 36.3014 24.2041 34.9006C25.2361 34.941 26.2881 34.9616 27.3573 34.9616C28.4559 34.9616 29.5418 34.937 30.6106 34.8894C29.5611 36.3155 28.5016 37.62 27.4468 38.7812ZM38.4359 26.6092C39.1563 28.2513 39.7634 29.8398 40.2456 31.3503C38.683 31.7069 36.9959 31.9941 35.2182 32.2073C35.7878 31.3043 36.3395 30.39 36.8727 29.465C37.4149 28.5248 37.9361 27.5726 38.4359 26.6092ZM34.8784 28.3147C34.062 29.7328 33.1997 31.1241 32.2929 32.4863C30.6503 32.6027 29.0041 32.6605 27.3573 32.6595C25.6801 32.6595 24.0487 32.6073 22.4778 32.5054C21.5473 31.1465 20.6685 29.7528 19.8434 28.3273C19.0222 26.9095 18.2553 25.4609 17.5441 23.9848C18.2535 22.5083 19.0182 21.0591 19.8367 19.6402L19.8365 19.6404C20.6545 18.221 21.5263 16.8333 22.4498 15.4802C24.0525 15.3589 25.6961 15.2958 27.3571 15.2958C29.0258 15.2958 30.6717 15.3595 32.274 15.4816C33.1881 16.8327 34.0543 18.2157 34.8708 19.628C35.6919 21.0438 36.4668 22.486 37.1942 23.9522C36.4742 25.4333 35.7018 26.8884 34.8784 28.3147ZM39.6279 2.60438C41.4325 3.64523 42.1344 7.84249 41.0005 13.3467C40.9278 13.6981 40.8471 14.0553 40.7584 14.4183C38.5222 13.9021 36.0942 13.5183 33.5521 13.2798C32.0712 11.1709 30.5367 9.25365 28.9963 7.59386C29.4 7.20472 29.8133 6.82565 30.2359 6.45702C34.2148 2.99449 37.9336 1.62733 39.6279 2.60438ZM27.3573 19.1174C30.0152 19.1174 32.17 21.2722 32.17 23.9301C32.17 26.588 30.0152 28.7427 27.3573 28.7427C24.6994 28.7427 22.5447 26.588 22.5447 23.9301C22.5447 21.2722 24.6994 19.1174 27.3573 19.1174Z" fill="#00D8FF"/>
</g>
<defs>
<clipPath id="clip0_236_296">
<rect width="53.895" height="48" fill="white" transform="translate(0.409637)"/>
</clipPath>
</defs>
</svg>
