<svg width="87" height="64" viewBox="0 0 87 64" fill="none" xmlns="http://www.w3.org/2000/svg">
<g clip-path="url(#clip0_270_220)">
<path d="M74.3232 36.838C71.3545 36.8533 68.7742 37.5683 66.6138 38.6253C65.8208 37.0553 65.0282 35.6567 64.8885 34.6307C64.7328 33.434 64.5465 32.7033 64.7328 31.2733C64.9195 29.8433 65.7588 27.807 65.7432 27.6517C65.7275 27.4963 65.5565 26.7657 63.8468 26.7503C62.1372 26.735 60.6605 27.0767 60.4895 27.5273C60.3185 27.978 59.9921 29.004 59.7745 30.0607C59.4791 31.6153 56.3552 37.164 54.5678 40.0707C53.9925 38.9363 53.4952 37.9413 53.3862 37.1487C53.2308 35.952 53.0441 35.2213 53.2308 33.7913C53.4175 32.3613 54.2568 30.3253 54.2412 30.1697C54.2255 30.0143 54.0545 29.2837 52.3448 29.2683C50.6348 29.2527 49.1582 29.5947 48.9875 30.0453C48.8165 30.4963 48.6298 31.553 48.2725 32.579C47.9151 33.605 43.7648 42.869 42.6768 45.2623C42.2371 46.231 41.7759 47.1898 41.2935 48.138C41.2935 48.138 41.2778 48.1847 41.2311 48.2623C41.0796 48.5596 40.9242 48.855 40.7652 49.1483V49.1637C40.5318 49.5837 40.2832 49.972 40.1588 49.972C40.0655 49.972 39.8945 48.853 40.1898 47.3297C40.8115 44.1123 42.2881 39.1073 42.2728 38.9363C42.2728 38.843 42.5525 37.9727 41.3091 37.5217C40.0965 37.071 39.6615 37.817 39.5525 37.817C39.4435 37.817 39.3658 38.0813 39.3658 38.0813C39.3658 38.0813 40.7185 32.4547 36.7858 32.4547C34.3301 32.4547 30.9415 35.1437 29.2628 37.5683C27.3545 38.6068 25.4479 39.6483 23.5428 40.6927C22.6262 41.2057 21.6778 41.7187 20.7918 42.2003C20.7295 42.1383 20.6675 42.0603 20.6051 41.9983C15.8488 36.9157 7.05148 33.325 7.42448 26.5017C7.56448 24.0147 8.41915 17.4863 24.3202 9.55933C37.4075 3.10867 47.8218 4.896 49.6248 8.85967C52.2048 14.5177 44.0448 25.025 30.5218 26.548C25.3615 27.1233 22.6568 25.1337 21.9731 24.3877C21.2581 23.6103 21.1491 23.5637 20.8848 23.7193C20.4498 23.9527 20.7295 24.652 20.8848 25.056C21.2891 26.1127 22.9522 27.978 25.7655 28.8953C28.2525 29.7033 34.2988 30.1543 41.6198 27.3253C49.8111 24.1543 56.2152 15.3413 54.3345 7.95833C52.4535 0.466335 40.0188 -2.005 28.2525 2.176C21.2581 4.66333 13.6728 8.58 8.21715 13.6783C1.73548 19.74 0.709481 25.0093 1.12915 27.2167C2.63715 35.0503 13.4398 40.1487 17.7608 43.9257C17.5431 44.05 17.3408 44.159 17.1701 44.2523C15.0095 45.3247 6.77148 49.63 4.71981 54.1843C2.38848 59.3447 5.09315 63.0443 6.88048 63.5413C12.4295 65.0803 18.1338 62.3137 21.1958 57.7437C24.2578 53.174 23.8848 47.2363 22.4705 44.5163C22.4548 44.4853 22.4395 44.454 22.4082 44.423C22.9678 44.0967 23.5428 43.7547 24.1025 43.4283C25.1311 42.8203 26.1728 42.2346 27.2268 41.6717C26.6981 43.1173 26.3095 44.8427 26.1231 47.3297C25.8898 50.252 27.0865 54.0443 28.6565 55.5363C29.3561 56.1897 30.1798 56.205 30.7085 56.205C32.5425 56.205 33.3665 54.6817 34.2835 52.8787C35.4025 50.6717 36.4128 48.107 36.4128 48.107C36.4128 48.107 35.1538 55.0393 38.5735 55.0393C39.8168 55.0393 41.0758 53.4227 41.6355 52.599V52.6143C41.6355 52.6143 41.6665 52.5677 41.7288 52.459C41.8532 52.257 41.9308 52.1323 41.9308 52.1323V52.1017C42.4281 51.231 43.5475 49.257 45.2105 45.9773C47.3555 41.7497 49.4228 36.465 49.4228 36.465C49.4228 36.465 49.6095 37.755 50.2465 39.9C50.6198 41.159 51.3965 42.5423 52.0185 43.879C51.5212 44.5787 51.2102 44.967 51.2102 44.967L51.2258 44.9827C50.8215 45.511 50.3865 46.086 49.9045 46.646C48.2101 48.6663 46.1898 50.9827 45.9098 51.6507C45.5832 52.4433 45.6611 53.0187 46.2831 53.485C46.7338 53.827 47.5418 53.8733 48.3658 53.827C49.8891 53.718 50.9615 53.345 51.4898 53.112C52.3138 52.8167 53.2775 52.3657 54.1788 51.6973C55.8422 50.4693 56.8522 48.713 56.7592 46.3973C56.7125 45.1227 56.2928 43.848 55.7798 42.651C55.9355 42.4337 56.0751 42.216 56.2308 41.9983C58.8575 38.159 60.8938 33.9467 60.8938 33.9467C60.8938 33.9467 61.0805 35.2367 61.7175 37.382C62.0285 38.47 62.6658 39.6513 63.2252 40.8013C60.7538 42.8067 59.2305 45.138 58.6865 46.6613C57.7075 49.4903 58.4688 50.7647 59.9145 51.06C60.5671 51.2 61.4998 50.889 62.1838 50.5937C63.0542 50.314 64.0802 49.8323 65.0595 49.117C66.7228 47.8893 68.3235 46.1793 68.2302 43.8637C68.1835 42.8067 67.9038 41.765 67.5151 40.7547C69.6135 39.8847 72.3182 39.4027 75.7685 39.8067C83.1675 40.677 84.6285 45.2933 84.3485 47.2367C84.0688 49.1793 82.5145 50.2363 82.0018 50.5627C81.4885 50.8893 81.3178 50.998 81.3645 51.231C81.4265 51.573 81.6752 51.5577 82.1105 51.4953C82.7168 51.3867 85.9965 49.9253 86.1362 46.3503C86.3695 41.7807 82.0172 36.7913 74.3232 36.838ZM17.2478 56.0807C14.7918 58.754 11.3725 59.7643 9.89582 58.9097C8.31048 57.9923 8.93215 54.0443 11.9475 51.2157C13.7815 49.4903 16.1441 47.889 17.7141 46.91C18.0715 46.6923 18.6001 46.3817 19.2375 45.993C19.3461 45.9307 19.4085 45.8997 19.4085 45.8997L19.7815 45.6663C20.8848 49.7077 19.8281 53.2673 17.2478 56.0807ZM35.1228 43.9257C34.2678 46.0087 32.4805 51.34 31.3925 51.0447C30.4598 50.796 29.8845 46.7547 31.2058 42.76C31.8741 40.7547 33.2885 38.361 34.1125 37.4287C35.4492 35.9363 36.9258 35.4387 37.2832 36.0453C37.7342 36.838 35.6511 42.62 35.1228 43.9257ZM49.8735 50.9823C49.5158 51.169 49.1742 51.2933 49.0185 51.2C48.9098 51.1377 49.1741 50.889 49.1741 50.889C49.1741 50.889 51.0238 48.8997 51.7542 47.998C52.1742 47.4697 52.6711 46.848 53.1998 46.1483V46.3503C53.1998 48.7287 50.8992 50.3297 49.8732 50.9823M61.2508 48.3867C60.9865 48.2 61.0332 47.5783 61.9192 45.6353C62.2612 44.8737 63.0691 43.5993 64.4528 42.3713C64.6081 42.8687 64.7172 43.3507 64.7015 43.8013C64.6858 46.8013 62.5411 47.9203 61.2508 48.3867Z" fill="#CD6799"/>
</g>
<defs>
<clipPath id="clip0_270_220">
<rect width="85.335" height="64" fill="white" transform="translate(0.895264)"/>
</clipPath>
</defs>
</svg>
