<svg width="65" height="64" viewBox="0 0 65 64" fill="none" xmlns="http://www.w3.org/2000/svg">
<g clip-path="url(#clip0_270_218)">
<path d="M32.8972 12.801C24.3637 12.801 19.0322 17.066 16.8972 25.5995C20.0962 21.334 23.8307 19.7345 28.0962 20.801C30.5317 21.408 32.2722 23.174 34.1997 25.131C37.3367 28.3145 40.9677 32 48.8972 32C57.4302 32 62.7622 27.7345 64.8972 19.199C61.6972 23.4667 57.9641 25.067 53.6977 24C51.2627 23.3925 49.5242 21.627 47.5942 19.67C44.4592 16.4865 40.8292 12.801 32.8972 12.801ZM16.8972 32C8.36422 32 3.03222 36.2655 0.897217 44.801C4.09688 40.5334 7.82988 38.933 12.0962 40C14.5317 40.6075 16.2722 42.373 18.1997 44.33C21.3367 47.5135 24.9677 51.199 32.8972 51.199C41.4302 51.199 46.7622 46.934 48.8972 38.4005C45.6972 42.6662 41.9641 44.2657 37.6977 43.199C35.2627 42.592 33.5242 40.826 31.5942 38.869C28.4592 35.6855 24.8292 32 16.8972 32Z" fill="#38BDF8"/>
</g>
<defs>
<clipPath id="clip0_270_218">
<rect width="64" height="64" fill="white" transform="translate(0.895264)"/>
</clipPath>
</defs>
</svg>
