<svg width="49" height="48" viewBox="0 0 49 48" fill="none" xmlns="http://www.w3.org/2000/svg">
<g clip-path="url(#clip0_236_298)">
<path d="M24.3061 9.60077C17.906 9.60077 13.9074 12.7995 12.3061 19.1996C14.7054 16.0005 17.5062 14.8009 20.7054 15.6008C22.532 16.056 23.8374 17.3805 25.283 18.8483C27.6357 21.2359 30.359 24 36.3061 24C42.7059 24 46.7049 20.8009 48.3061 14.3993C45.9061 17.6 43.1062 18.8003 39.9065 18C38.0802 17.5444 36.7764 16.2203 35.3289 14.7525C32.9776 12.3649 30.2551 9.60077 24.3061 9.60077ZM12.3061 24C5.90637 24 1.90737 27.1991 0.306122 33.6008C2.70587 30.4 5.50562 29.1998 8.70537 30C10.532 30.4556 11.8374 31.7798 13.283 33.2475C15.6357 35.6351 18.359 38.3993 24.3061 38.3993C30.7059 38.3993 34.7049 35.2005 36.3061 28.8004C33.9061 31.9996 31.1062 33.1993 27.9065 32.3993C26.0802 31.944 24.7764 30.6195 23.3289 29.1518C20.9776 26.7641 18.2551 24 12.3061 24Z" fill="#38BDF8"/>
</g>
<defs>
<clipPath id="clip0_236_298">
<rect width="48" height="48" fill="white" transform="translate(0.304626)"/>
</clipPath>
</defs>
</svg>
