<svg width="44" height="48" viewBox="0 0 44 48" fill="none" xmlns="http://www.w3.org/2000/svg">
<g clip-path="url(#clip0_236_302)">
<path d="M22.0448 0.00793457L43.2311 11.9922V35.9685L22.0448 47.9528L0.858643 35.9685V11.9922L22.0448 0.00793457Z" fill="white"/>
<path d="M39.4495 35.1372L22.7485 44.5948V37.2397L33.1577 31.5076L39.4495 35.1372ZM40.5927 34.1058V14.3428L34.4848 17.8683V30.58L40.5927 34.1058ZM4.57618 35.137L21.2774 44.5871V37.2318L10.8682 31.5076L4.57618 35.137ZM3.43295 34.1058V14.3428L9.54104 17.8683V30.58L3.43295 34.1058ZM4.14468 13.0636L21.2774 3.37376V10.4893L10.3006 16.5253L10.2125 16.5733L4.14468 13.0636ZM39.8732 13.0636L22.7485 3.3736V10.4892L33.7173 16.533L33.8052 16.581L39.8732 13.0636Z" fill="#8ED6FB"/>
<path d="M21.2773 35.5609L11.012 29.9085V18.7238L21.2773 24.648V35.5609ZM22.7485 35.5609L33.0138 29.9166V18.7238L22.7485 24.648V35.5609ZM11.6995 17.4286L22.0129 11.7603L32.318 17.4286L22.0129 23.3768L11.6995 17.4286Z" fill="#1C78C0"/>
</g>
<defs>
<clipPath id="clip0_236_302">
<rect width="42.375" height="48" fill="white" transform="translate(0.857361)"/>
</clipPath>
</defs>
</svg>
