<svg width="57" height="64" viewBox="0 0 57 64" fill="none" xmlns="http://www.w3.org/2000/svg">
<g clip-path="url(#clip0_270_222)">
<path d="M28.4802 0.0106201L56.7285 15.9897V47.9581L28.4802 63.9371L0.231934 47.9581V15.9897L28.4802 0.0106201Z" fill="white"/>
<path d="M51.6864 46.8496L29.4183 59.4598V49.653L43.2973 42.0101L51.6864 46.8496ZM53.2107 45.4744V19.1237L45.0668 23.8243V40.7733L53.2107 45.4744ZM5.18861 46.8493L27.4569 59.4494V49.6424L13.5779 42.0101L5.18861 46.8493ZM3.66431 45.4744V19.1237L11.8084 23.8243V40.7733L3.66431 45.4744ZM4.61327 17.4182L27.4569 4.49833V13.9858L12.8212 22.0337L12.7038 22.0977L4.61327 17.4182ZM52.2513 17.4182L29.4183 4.49811V13.9856L44.0435 22.044L44.1606 22.108L52.2513 17.4182Z" fill="#8ED6FB"/>
<path d="M27.4569 47.4145L13.7698 39.8779V24.9651L27.4569 32.864V47.4145ZM29.4184 47.4145L43.1056 39.8888V24.9651L29.4184 32.864V47.4145ZM14.6865 23.2382L28.4377 15.6804L42.1778 23.2382L28.4377 31.1691L14.6865 23.2382Z" fill="#1C78C0"/>
</g>
<defs>
<clipPath id="clip0_270_222">
<rect width="56.5" height="64" fill="white" transform="translate(0.230225)"/>
</clipPath>
</defs>
</svg>
