<svg width="24" height="14" viewBox="0 0 24 14" fill="none" xmlns="http://www.w3.org/2000/svg">
<path d="M3.0313 7.03125L7.87505 11.875C8.10421 12.1042 8.2188 12.3958 8.2188 12.75C8.2188 13.1042 8.10421 13.3958 7.87505 13.625C7.64588 13.8542 7.35421 13.9688 7.00005 13.9688C6.64588 13.9688 6.35421 13.8542 6.12505 13.625L0.375048 7.875C0.250048 7.75 0.161297 7.61458 0.108797 7.46875C0.0562975 7.32292 0.030881 7.16667 0.0325476 7C0.0342143 6.83333 0.0604643 6.67708 0.111298 6.53125C0.162131 6.38542 0.250464 6.25 0.376297 6.125L6.1263 0.375C6.3763 0.125 6.67338 0 7.01755 0C7.36171 0 7.65838 0.125 7.90755 0.375C8.15671 0.625 8.28171 0.922083 8.28255 1.26625C8.28338 1.61042 8.15838 1.90708 7.90755 2.15625L3.0313 7.03125ZM20.9688 6.96875L16.125 2.125C15.8959 1.89583 15.7813 1.60417 15.7813 1.25C15.7813 0.895833 15.8959 0.604166 16.125 0.375C16.3542 0.145833 16.6459 0.0312501 17 0.0312501C17.3542 0.0312501 17.6459 0.145833 17.875 0.375L23.625 6.125C23.75 6.25 23.8388 6.38542 23.8913 6.53125C23.9438 6.67708 23.9696 6.83333 23.9688 7C23.968 7.16667 23.9421 7.32292 23.8913 7.46875C23.8405 7.61458 23.7517 7.75 23.625 7.875L17.875 13.625C17.625 13.875 17.3334 13.995 17 13.985C16.6667 13.975 16.375 13.8446 16.125 13.5938C15.875 13.3429 15.75 13.0463 15.75 12.7038C15.75 12.3613 15.875 12.0642 16.125 11.8125L20.9688 6.96875Z" fill="#3D3D3D"/>
</svg>
