<svg width="49" height="48" viewBox="0 0 49 48" fill="none" xmlns="http://www.w3.org/2000/svg">
<g clip-path="url(#clip0_236_320)">
<path d="M37.4868 0H11.9868C5.77355 0 0.736755 5.0368 0.736755 11.25V36.75C0.736755 42.9632 5.77355 48 11.9868 48H37.4868C43.7 48 48.7368 42.9632 48.7368 36.75V11.25C48.7368 5.0368 43.7 0 37.4868 0Z" fill="#F4F2ED"/>
<path d="M43.4868 34.3007C42.9409 34.5074 42.3383 34.507 41.7927 34.2996C41.2471 34.0921 40.7965 33.6919 40.5259 33.1748C38.8266 30.631 36.9501 28.2019 35.1466 25.7207L34.3645 24.6782C32.2169 27.5556 30.0693 30.3182 28.1093 33.1853C27.854 33.6796 27.4278 34.0642 26.9099 34.2675C26.3921 34.4708 25.818 34.479 25.2946 34.2904L33.3533 23.4793L25.8574 13.7106C26.397 13.5157 26.9873 13.513 27.5287 13.703C28.07 13.8929 28.5292 14.2638 28.8288 14.7531C30.5697 17.2971 32.4985 19.7261 34.4166 22.3013C36.3454 19.747 38.2533 17.3074 40.036 14.7844C40.2927 14.2981 40.7192 13.9232 41.2344 13.731C41.7496 13.5387 42.3174 13.5426 42.8299 13.7419L39.9213 17.5993C38.6181 19.3195 37.3358 21.0501 35.9806 22.7286C35.8713 22.8263 35.7839 22.946 35.724 23.0799C35.6642 23.2137 35.6332 23.3587 35.6332 23.5053C35.6332 23.6519 35.6642 23.7969 35.724 23.9307C35.7839 24.0646 35.8713 24.1843 35.9806 24.282C38.4723 27.5869 40.9429 30.9021 43.4868 34.3007ZM5.98676 23.3438C6.20576 22.3013 6.34113 21.1648 6.64357 20.1015C8.44713 13.69 15.7969 11.0209 20.8533 14.9931C23.8141 17.3181 24.5543 20.6125 24.4084 24.3238H7.72788C7.45676 30.9544 12.2419 34.9577 18.3616 32.9143C19.3543 32.5592 20.2429 31.9625 20.9473 31.178C21.6517 30.3935 22.1496 29.446 22.3962 28.4209C22.7194 27.3784 23.2407 27.2012 24.2311 27.5035C24.068 28.7727 23.6193 29.9884 22.9187 31.0592C22.2181 32.13 21.2838 33.028 20.1861 33.6857C18.3726 34.6775 16.2918 35.0705 14.2414 34.8083C12.1911 34.5462 10.2761 33.6424 8.77038 32.2262C7.28075 30.5513 6.38005 28.435 6.20576 26.2003C6.20576 25.846 6.07019 25.4914 5.99726 25.1578C5.99036 24.5532 5.98686 23.9485 5.98676 23.3438ZM7.74869 22.8955H22.8342C22.7403 18.0895 19.7065 14.6803 15.6616 14.6492C11.1578 14.5866 7.93638 17.9226 7.73819 22.8746L7.74869 22.8955Z" fill="#0F0F0F"/>
</g>
<defs>
<clipPath id="clip0_236_320">
<rect width="48" height="48" fill="white" transform="translate(0.736755)"/>
</clipPath>
</defs>
</svg>
