<svg width="65" height="64" viewBox="0 0 65 64" fill="none" xmlns="http://www.w3.org/2000/svg">
<g clip-path="url(#clip0_270_240)">
<path d="M49.7473 0H15.7473C7.46304 0 0.747314 6.71573 0.747314 15V49C0.747314 57.2843 7.46304 64 15.7473 64H49.7473C58.0316 64 64.7473 57.2843 64.7473 49V15C64.7473 6.71573 58.0316 0 49.7473 0Z" fill="#F4F2ED"/>
<path d="M57.7473 45.7342C57.0195 46.0099 56.216 46.0093 55.4886 45.7327C54.7612 45.4561 54.1603 44.9226 53.7996 44.233C51.5338 40.8412 49.0318 37.6025 46.6271 34.2942L45.5843 32.9042C42.7208 36.7407 39.8573 40.4242 37.2441 44.247C36.9037 44.9061 36.3353 45.4189 35.6449 45.69C34.9544 45.9611 34.1889 45.9719 33.4911 45.7205L44.2361 31.3057L34.2416 18.2807C34.961 18.0209 35.7481 18.0174 36.4698 18.2706C37.1916 18.5238 37.8039 19.0184 38.2033 19.6707C40.5246 23.0627 43.0963 26.3015 45.6538 29.735C48.2256 26.3292 50.7693 23.0765 53.1463 19.7125C53.4886 19.0641 54.0573 18.5642 54.7442 18.3079C55.4311 18.0516 56.1882 18.0568 56.8716 18.3225L52.9933 23.4657C51.2558 25.7592 49.5461 28.0667 47.7391 30.3047C47.5934 30.4351 47.4768 30.5947 47.397 30.7731C47.3172 30.9516 47.276 31.1449 47.276 31.3404C47.276 31.5358 47.3172 31.7291 47.397 31.9076C47.4768 32.086 47.5934 32.2456 47.7391 32.376C51.0613 36.7825 54.3556 41.2027 57.7473 45.7342ZM7.74731 31.125C8.03931 29.735 8.21981 28.2197 8.62306 26.802C11.0278 18.2532 20.8276 14.6945 27.5693 19.9907C31.5171 23.0907 32.5041 27.4832 32.3096 32.4317H10.0688C9.70731 41.2725 16.0876 46.6102 24.2471 43.8857C25.5707 43.4122 26.7555 42.6166 27.6947 41.5706C28.6339 40.5246 29.2978 39.2612 29.6266 37.8945C30.0576 36.5045 30.7526 36.2682 32.0731 36.6712C31.8556 38.3635 31.2573 39.9844 30.3232 41.4122C29.3891 42.8399 28.1434 44.0373 26.6798 44.9142C24.2617 46.2367 21.4874 46.7606 18.7535 46.4111C16.0197 46.0616 13.4664 44.8565 11.4588 42.9682C9.47264 40.735 8.27171 37.9133 8.03931 34.9337C8.03931 34.4612 7.85856 33.9885 7.76131 33.5437C7.75212 32.7375 7.74745 31.9313 7.74731 31.125ZM10.0966 30.5272H30.2106C30.0853 24.1192 26.0403 19.5737 20.6471 19.5322C14.6421 19.4487 10.3468 23.8967 10.0826 30.4995L10.0966 30.5272Z" fill="#0F0F0F"/>
</g>
<defs>
<clipPath id="clip0_270_240">
<rect width="64" height="64" fill="white" transform="translate(0.747314)"/>
</clipPath>
</defs>
</svg>
