<svg width="73" height="48" viewBox="0 0 73 48" fill="none" xmlns="http://www.w3.org/2000/svg">
<g clip-path="url(#clip0_236_317)">
<path d="M51.4663 1.06304L51.3715 0.91494L51.3709 0.915525L51.3674 0.917868L51.3522 0.927233L51.2919 0.964697C50.925 1.19023 50.554 1.409 50.1791 1.62089C49.1902 2.17941 48.1782 2.69596 47.1457 3.16918C44.6895 4.2925 41.583 5.38831 38.9243 5.32977C37.5814 5.29992 36.4657 5.18811 35.4138 5.07748L35.2417 5.05933C34.2548 4.95514 33.3135 4.85621 32.2909 4.83455C30.121 4.78889 27.5951 5.09387 23.4396 6.41914C19.2495 7.75494 16.5656 10.4728 14.6339 13.0619C13.8841 14.0669 13.2443 15.0562 12.6759 15.9366C12.5135 16.1887 12.3563 16.4308 12.2041 16.663C11.5134 17.7149 10.9338 18.5186 10.3643 18.9319C9.16194 19.8035 6.67706 21.658 4.49364 23.2929C3.54212 24.0056 2.59109 24.719 1.64057 25.433L0.754327 26.0991L0.5114 26.2824L0.448181 26.3304L0.431791 26.3426L0.427693 26.3456L0.426522 26.3462L0.341644 26.4105L0.35862 26.5153L0.37501 26.616L0.407791 26.8168L0.601547 26.7553L6.72447 24.8055C6.49325 25.0525 6.1795 25.3967 5.78145 25.8545C4.83667 26.9421 3.41716 28.6701 1.49481 31.2533L1.45325 31.2146L1.06457 30.857L1.16233 31.3756L1.16935 31.4131L1.17579 31.4476L1.19511 31.4769L1.19569 31.4781L1.19745 31.481L1.20447 31.4921L1.23257 31.5343C1.39738 31.7733 1.56956 32.0072 1.74886 32.2355C2.19183 32.8029 2.67775 33.3354 3.20233 33.8283C3.80291 34.3867 4.50886 34.9241 5.27042 35.2642C6.03316 35.6049 6.86086 35.7524 7.69267 35.513C7.99706 35.424 8.33364 35.2847 8.69364 35.105C9.95218 35.7963 11.5848 36.4701 13.3883 36.6586L13.8279 36.7048L13.5399 36.3694L13.5393 36.3688L13.537 36.3659L13.5264 36.3542L13.4866 36.3067C13.2546 36.0288 13.0272 35.747 12.8047 35.4615C12.3083 34.8248 11.8395 34.167 11.3998 33.49L11.8874 33.1733L14.3974 34.0958L14.6655 34.1942L14.6322 33.9103L14.377 31.735L16.6792 32.5809L16.9549 32.6822L16.9134 32.3912L16.6154 30.3026C16.8987 30.1559 17.1807 30.0178 17.4613 29.8882L17.5379 29.8537L17.559 29.7735L20.192 19.8141L30.6203 12.7007L29.9617 14.3573C28.8642 17.0558 27.2878 18.72 25.9894 19.7087C25.4752 20.1023 24.9237 20.4448 24.3428 20.7313C24.1409 20.8297 23.934 20.9174 23.7229 20.9942L23.6901 21.0053L23.6872 21.0065L23.6825 21.0082L23.6808 21.0088L23.6755 21.0105L23.6702 21.0123L21.9288 21.6726L21.886 21.6878L21.8568 21.7224L21.6548 21.9594C21.1128 22.594 20.6931 23.0851 20.3658 23.9432C20.0023 24.8962 19.7535 26.2964 19.5317 28.8656L19.5106 29.1108L19.7494 29.0505C20.7756 28.793 21.7409 28.735 22.6054 28.968C24.8843 29.5821 26.425 31.2644 27.2415 32.993C27.6495 33.857 27.8737 34.7263 27.92 35.4697C27.9668 36.2201 27.831 36.8119 27.5559 37.152C27.2579 37.5202 26.5414 38.1594 25.6136 38.9286H23.6041L23.6012 39.1013L23.5766 40.5571L23.5754 40.5583L23.4946 40.6209H21.4499L21.447 40.7936L21.4248 42.2113L21.1813 42.3946L21.0337 42.5058C20.1826 42.5069 19.2103 42.144 18.4306 41.7635C17.9984 41.552 17.5789 41.3153 17.1744 41.0546L17.1001 41.0055L17.0814 40.9926L17.0778 40.9903L17.0773 40.9897L17.0761 40.9891L16.801 40.8V41.1343C16.801 41.8923 17.1135 42.8347 17.4144 43.5717C17.5832 43.981 17.7686 44.3833 17.9699 44.7776L17.9711 44.7793L17.8991 44.8308L18.0525 44.9333L18.1022 45.0252L18.1543 45.0006L18.1684 45.01L18.3305 45.1124C19.1685 45.6297 20.0459 46.08 20.9547 46.4593C21.7614 46.7924 22.6704 47.0904 23.5754 47.2285C24.4792 47.3666 25.3912 47.3462 26.1955 47.0306C26.8933 46.7573 27.8568 46.2012 28.9941 45.49C29.7762 45.0012 30.6466 44.434 31.5774 43.8281C32.0043 43.5495 32.4425 43.2648 32.8921 42.9741C35.7516 41.1249 39.0179 39.0884 42.0414 37.7795L60.4376 32.9333L60.5243 32.9105L60.5565 32.8267L62.984 26.5376L63.1075 26.2174L62.7756 26.3052L48.9662 29.9432V24.6556L65.2968 20.3532L65.3834 20.3304L65.4156 20.2466L67.8431 13.9575L67.9666 13.6373L67.6347 13.7251L48.9709 18.6427V13.3557L70.1512 7.77484L70.2378 7.75201L70.27 7.66831L72.5313 1.81231L72.5518 1.75845L72.5366 1.70284L72.4382 1.33992L72.3926 1.17192L72.224 1.2164L50.3003 6.99279C51.313 5.39474 51.663 3.95826 51.752 2.89231C51.8 2.31748 51.7713 1.85153 51.7303 1.52723C51.7099 1.36703 51.6812 1.20798 51.6443 1.05075L51.6373 1.02382L51.6349 1.01621L51.6343 1.01387L51.4663 1.06304ZM51.4663 1.06304L51.3715 0.91494L51.5682 0.789673L51.6343 1.01387L51.4663 1.06304ZM51.2977 1.11279C51.2977 1.11201 51.2977 1.11201 51.2977 1.11279V1.11279ZM36.8287 19.7239L40.9362 18.641L39.6296 22.0262L35.5221 23.1091L36.8287 19.7239ZM39.3791 23.5984L38.0726 26.986L33.9651 28.0695L35.2722 24.6814L39.3791 23.5984ZM45.2778 22.3323L43.9713 25.7198L39.8638 26.8033L41.1709 23.4152L45.2778 22.3323Z" fill="white"/>
<path d="M24.5875 47.4843C24.2398 47.4824 23.8927 47.4546 23.5491 47.4012C22.7377 47.2777 21.8421 47.0149 20.888 46.6209C19.9702 46.2376 19.0839 45.7828 18.2374 45.2605L18.1414 45.2002L18.0267 45.2547L17.919 45.0545L17.59 44.8355L17.7463 44.7243L17.6749 44.5803C17.5701 44.3655 17.4115 44.0277 17.2529 43.6385C16.8373 42.6211 16.6265 41.7782 16.6265 41.1349V40.4664L17.199 40.8603L17.2716 40.9083C17.6703 41.1648 18.0834 41.3979 18.5091 41.6067C19.1723 41.9304 20.1323 42.315 20.977 42.3308L21.0214 42.2974L21.0771 42.2552L21.2521 42.1241L21.2784 40.4465H23.4039L23.432 38.7542H25.5516C26.5315 37.9405 27.1602 37.3645 27.4207 37.0426C27.67 36.7341 27.7883 36.1645 27.7461 35.4814C27.6993 34.731 27.4646 33.874 27.0841 33.0691C26.6635 32.1742 26.0762 31.3676 25.3537 30.6925C24.5637 29.9539 23.6046 29.4203 22.5604 29.1384C21.7695 28.9253 20.8646 28.9528 19.7928 29.2215L19.3151 29.3421L19.3578 28.851C19.5768 26.3216 19.8214 24.8816 20.2031 23.8812C20.5409 22.995 20.974 22.488 21.5225 21.8459L21.5746 21.7844L21.7233 21.6094L21.7824 21.5397L21.8667 21.5075L23.6193 20.8431L23.6374 20.8373L23.6661 20.8279C23.8705 20.7531 24.071 20.6679 24.2667 20.5727C24.8376 20.2923 25.3792 19.9558 25.8835 19.5682C26.6415 18.988 27.3237 18.3151 27.9141 17.5651C28.6646 16.6162 29.295 15.5257 29.7873 14.3228V14.3187L29.8013 14.2882L30.2462 13.169L20.3448 19.9224L17.7288 29.8186L17.6866 29.979L17.5356 30.048C17.3032 30.1551 17.0644 30.2711 16.808 30.4016L17.1721 32.9479L14.5859 31.9979L14.8745 34.4564L11.9102 33.3671L11.6433 33.5403C12.0522 34.1616 12.4861 34.766 12.944 35.352C13.1711 35.6441 13.3561 35.8718 13.4714 36.0111L13.6218 36.192L13.6646 36.2424L13.6687 36.2476L13.7155 36.2933V36.3027L14.2499 36.9243L13.3707 36.8318C11.8435 36.672 10.2694 36.1569 8.69013 35.3011C8.39014 35.4513 8.07825 35.5764 7.75764 35.6751L7.74184 35.6798L7.73598 35.6816L7.71842 35.6869C6.9311 35.907 6.08408 35.8186 5.19901 35.4234C4.5112 35.1161 3.7994 34.6227 3.08291 33.9559C2.385 33.2979 1.75347 32.5729 1.19745 31.7912L1.14652 31.7187L1.14301 31.721L1.04993 31.5782L1.0195 31.5378V31.5313L1.00837 31.515L0.989056 31.409L0.7953 30.37L1.4714 30.9916C3.4072 28.3979 4.80915 26.7068 5.64974 25.7392C5.82301 25.5397 5.98984 25.3509 6.15023 25.1725L0.654812 26.9222L0.266715 27.0451L0.151398 26.3339L0.406032 26.1425L0.519007 26.0576L0.981446 25.7099L1.53637 25.2931C2.20662 24.7897 3.24564 24.01 4.38945 23.153C6.3791 21.6627 9.01325 19.6964 10.2624 18.7903C10.7963 18.4033 11.3664 17.6219 12.0583 16.5676C12.2099 16.3364 12.3674 16.0929 12.5295 15.8424C13.0973 14.9637 13.7407 13.9686 14.494 12.9583C15.6478 11.4117 16.8209 10.1614 18.08 9.13525C19.6522 7.84938 21.4529 6.87152 23.3875 6.25291C27.0572 5.08217 29.7212 4.60627 32.2956 4.66013C33.3258 4.68179 34.2659 4.78071 35.2611 4.88608L35.4332 4.90422C36.5787 5.02481 37.6324 5.12666 38.929 5.15535C40.1254 5.18169 41.5169 4.96978 43.0634 4.52491C44.3114 4.16608 45.6607 3.65622 47.0737 3.01057C48.1012 2.53869 49.1087 2.0245 50.0936 1.4693C50.481 1.25077 50.8639 1.02438 51.2421 0.790273L51.2843 0.763347L51.6706 0.516907L51.8527 1.13271L51.8439 1.13505C51.8609 1.217 51.8843 1.34344 51.9048 1.50618C51.9604 1.94696 51.968 2.41876 51.927 2.90754C51.8205 4.19008 51.4002 5.46793 50.6761 6.713L72.5167 0.958859L72.7368 1.76783L72.6958 1.87496L70.3701 7.89896L70.1963 7.94461L49.1465 13.491V18.4151L68.254 13.3797L68.007 14.0207L65.5151 20.4773L65.3412 20.523L49.1413 24.7914V29.7132L62.7305 26.1337L63.3949 25.9587L63.1479 26.5996L60.656 33.0568L60.4821 33.1025L42.0993 37.9452C39.1432 39.2266 35.9734 41.1899 32.9881 43.121C32.5596 43.3979 32.1393 43.6718 31.7325 43.937L31.6599 43.9844C30.7379 44.5844 29.8669 45.1516 29.0878 45.6387C27.7637 46.467 26.8915 46.9464 26.2599 47.194C25.7658 47.3872 25.2062 47.4843 24.5875 47.4843ZM18.265 44.8625L18.4236 44.9626C19.2537 45.474 20.1225 45.9198 21.022 46.296C21.9504 46.6794 22.8179 46.9347 23.6017 47.0541C24.5816 47.2034 25.4328 47.1401 26.1311 46.8662C26.7416 46.6268 27.5957 46.1561 28.9011 45.3401C29.6778 44.8543 30.5471 44.2882 31.4679 43.6888L31.5405 43.6414C31.9589 43.3684 32.3778 43.0962 32.7972 42.8248C35.7996 40.8831 38.9893 38.9081 41.9723 37.6162L41.9846 37.611L41.9974 37.6074L60.3937 32.7612L62.8207 26.472L48.7912 30.168V24.5198L65.2529 20.1829L67.6804 13.8937L48.7953 18.8705V13.2199L70.1067 7.60452L72.368 1.74852L72.2696 1.38618L49.9133 7.27613L50.1528 6.89857C50.9857 5.58442 51.4651 4.23164 51.5775 2.87769C51.6255 2.29876 51.5928 1.83574 51.5565 1.54949C51.5431 1.44397 51.5261 1.33893 51.5055 1.23457L51.3885 1.2691L51.3171 1.15788L51.3159 1.15613L51.2907 1.17193L51.2708 1.28666L51.169 1.27144L51.1613 1.25096L51.1479 1.25915C50.8722 1.42598 50.5754 1.59925 50.2652 1.77427C49.2718 2.33488 48.2555 2.85377 47.2189 3.32959C45.79 3.98286 44.4244 4.49857 43.1594 4.86208C41.5789 5.31632 40.1524 5.53291 38.9202 5.50598C37.6101 5.4773 36.5489 5.37427 35.3957 5.2531L35.2236 5.23496C34.2361 5.13076 33.303 5.03242 32.2874 5.01135C29.7539 4.95808 27.1239 5.4293 23.4934 6.58774C21.5805 7.19769 19.8817 8.12022 18.3013 9.40803C17.065 10.4154 15.9112 11.6453 14.775 13.1684C14.0281 14.1694 13.3883 15.1592 12.824 16.0332C12.6618 16.2837 12.5038 16.5284 12.3516 16.7602C11.6181 17.8777 11.0468 18.6551 10.4679 19.0748C9.22047 19.9791 6.58808 21.9448 4.59959 23.434C3.64823 24.1466 2.6974 24.86 1.7471 25.5741L1.19276 25.9909L0.730325 26.3386L0.617934 26.4229L0.534812 26.4849L0.5313 26.4802L0.548861 26.5879L7.31393 24.4338L6.85267 24.9255C6.53349 25.2678 6.22066 25.6159 5.91432 25.9698C5.06028 26.9526 3.62496 28.6847 1.63589 31.3581L1.51998 31.5138L1.41286 31.416V31.4869L1.48428 31.5887C1.60837 31.7639 1.74281 31.9434 1.88759 32.1272C2.20369 32.53 2.70945 33.1294 3.32232 33.7001C4.01071 34.3405 4.69032 34.8129 5.34242 35.1044C6.15198 35.4662 6.92115 35.5481 7.62945 35.3491L7.65169 35.338H7.66808C7.99427 35.2348 8.31127 35.1046 8.61579 34.9487L8.69774 34.9077L8.77852 34.9522C10.3286 35.8033 11.8716 36.3179 13.3649 36.4806V36.435L13.3526 36.4203C13.1185 36.141 12.8898 35.8572 12.6665 35.5692C12.166 34.9289 11.6942 34.2668 11.2523 33.5848L11.1574 33.4379L11.3044 33.3431L11.7914 33.0264L11.8652 32.9784L14.4583 33.9313L14.1697 31.4722L16.7401 32.4164L16.424 30.2043L16.5352 30.147C16.8384 29.9907 17.1176 29.8543 17.3881 29.729L20.0374 19.7064L30.9937 12.233L30.1356 14.3912V14.3965L30.121 14.4275C29.6146 15.672 28.9637 16.8018 28.1863 17.784C27.5781 18.5577 26.8748 19.2515 26.0931 19.8492C25.5701 20.2508 25.0085 20.5995 24.4166 20.89C24.2083 20.9908 23.9951 21.0812 23.7779 21.161L23.7422 21.1733L23.7299 21.1774L21.9891 21.8377L21.8398 22.0133L21.7871 22.0748C21.2398 22.7151 20.8447 23.1776 20.5286 24.0071C20.1598 24.9752 19.921 26.3877 19.705 28.882C20.8359 28.5981 21.7994 28.5711 22.6493 28.8C23.7483 29.0966 24.7578 29.6579 25.5896 30.435C26.3451 31.1406 26.9592 31.9837 27.399 32.9192C27.7982 33.7639 28.0447 34.666 28.0938 35.4597C28.1424 36.2406 27.9996 36.8816 27.6911 37.2632C27.4078 37.6139 26.7645 38.2028 25.7243 39.065L25.6757 39.1054H23.7768L23.751 40.635L23.679 40.704L23.6708 40.7081L23.6591 40.7169L23.6041 40.7596L23.5561 40.7971H21.6232L21.5998 42.3003L21.5319 42.3518C21.4499 42.4143 21.3684 42.4755 21.2872 42.5356L21.2316 42.5778L21.1403 42.6463L21.0934 42.682H21.0308C20.5192 42.682 19.6412 42.5497 18.3545 41.9216C17.9156 41.7073 17.4899 41.4671 17.0796 41.2022L17.0029 41.1513L16.9772 41.1343C16.9772 41.7237 17.185 42.5438 17.5777 43.505C17.74 43.9016 17.9188 44.2913 18.1139 44.6728L18.1174 44.6763L18.1297 44.7038L18.1818 44.8074L18.1871 44.811L18.1889 44.8145L18.248 44.8513L18.265 44.8625ZM33.6776 28.3265L35.1405 24.5345L39.6665 23.3415L38.2043 27.1329L33.6776 28.3265ZM35.4033 24.8283L34.2525 27.8119L37.9414 26.8391L39.0923 23.856L35.4033 24.8283ZM39.5758 27.0603L41.0386 23.2683L45.5647 22.0748L44.1024 25.8662L39.5758 27.0603ZM41.302 23.5622L40.1512 26.5458L43.8402 25.5729L44.991 22.5899L41.302 23.5622ZM35.2341 23.3667L36.697 19.577L41.223 18.3834L39.7602 22.1725L35.2341 23.3667ZM36.9598 19.8709L35.809 22.8515L39.4979 21.8787L40.6482 18.898L36.9598 19.8709Z" fill="black"/>
</g>
<defs>
<clipPath id="clip0_236_317">
<rect width="72.5854" height="48" fill="white" transform="translate(0.151398)"/>
</clipPath>
</defs>
</svg>
