<svg width="98" height="64" viewBox="0 0 98 64" fill="none" xmlns="http://www.w3.org/2000/svg">
<g clip-path="url(#clip0_270_237)">
<path d="M69.3867 1.41734L69.2603 1.21988L69.2595 1.22066L69.2548 1.22378L69.2345 1.23627L69.1541 1.28622C68.665 1.58694 68.1703 1.87863 67.6704 2.16115C66.3519 2.90583 65.0025 3.59458 63.6259 4.22554C60.351 5.72329 56.209 7.18437 52.664 7.10632C50.8735 7.06651 49.3859 6.91744 47.9834 6.76993L47.7539 6.74573C46.438 6.60681 45.183 6.4749 43.8195 6.44603C40.9262 6.38515 37.5584 6.79178 32.0177 8.55881C26.431 10.3399 22.8525 13.9637 20.2768 17.4158C19.277 18.7559 18.424 20.0749 17.6661 21.2488C17.4497 21.5849 17.24 21.9077 17.037 22.2173C16.1161 23.6199 15.3434 24.6915 14.584 25.2425C12.9808 26.4047 9.66768 28.8772 6.75646 31.0571C5.48775 32.0074 4.21972 32.9586 2.95236 33.9106L1.7707 34.7988L1.4468 35.0431L1.36251 35.1071L1.34065 35.1235L1.33519 35.1274L1.33363 35.1282L1.22046 35.214L1.24309 35.3537L1.26495 35.488L1.30865 35.7557L1.567 35.6737L9.7309 33.0739C9.42261 33.4033 9.00426 33.8622 8.47353 34.4726C7.21383 35.9227 5.32114 38.2267 2.75802 41.671L2.70261 41.6195L2.18436 41.1426L2.3147 41.8341L2.32407 41.8841L2.33265 41.9301L2.35841 41.9692L2.35919 41.9707L2.36153 41.9746L2.3709 41.9894L2.40836 42.0456C2.62811 42.3644 2.85768 42.6762 3.09675 42.9807C3.68738 43.7372 4.33527 44.4472 5.0347 45.1044C5.83548 45.849 6.77675 46.5654 7.79217 47.0189C8.80914 47.4731 9.91275 47.6698 11.0218 47.3506C11.4277 47.232 11.8765 47.0462 12.3565 46.8066C14.0345 47.7284 16.2113 48.6267 18.616 48.878L19.2021 48.9397L18.8181 48.4925L18.8173 48.4917L18.8142 48.4878L18.8002 48.4722L18.7471 48.409C18.4377 48.0384 18.1346 47.6627 17.8378 47.2819C17.176 46.433 16.551 45.556 15.9647 44.6532L16.6148 44.231L19.9615 45.4611L20.319 45.5922L20.2745 45.2136L19.9342 42.3133L23.0039 43.4411L23.3715 43.5762L23.3161 43.1883L22.9188 40.4035C23.2966 40.2078 23.6725 40.0237 24.0466 39.8509L24.1488 39.8049L24.1769 39.6979L27.6876 26.4187L41.592 16.9342L40.7139 19.143C39.2505 22.7411 37.1487 24.96 35.4175 26.2782C34.7318 26.8031 33.9965 27.2598 33.222 27.6417C32.9528 27.7729 32.6769 27.8899 32.3955 27.9922L32.3518 28.007L32.3479 28.0086L32.3416 28.0109L32.3393 28.0117L32.3323 28.014L32.3252 28.0164L30.0033 28.8968L29.9463 28.917L29.9073 28.9631L29.638 29.2792C28.9153 30.1252 28.3557 30.7801 27.9194 31.9243C27.4347 33.1949 27.103 35.0618 26.8072 38.4874L26.7791 38.8144L27.0975 38.734C28.4657 38.3906 29.7528 38.3133 30.9055 38.624C33.944 39.4427 35.9982 41.6858 37.087 43.9906C37.631 45.1426 37.9299 46.3016 37.9916 47.2929C38.054 48.2934 37.8729 49.0825 37.5061 49.536C37.1089 50.0269 36.1535 50.8792 34.9165 51.9048H32.237L32.2331 52.135L32.2004 54.0761L32.1988 54.0776L32.0911 54.1611H29.3648L29.3609 54.3914L29.3313 56.2817L29.0066 56.526L28.8099 56.6743C27.6751 56.6759 26.3787 56.192 25.3391 55.6847C24.7628 55.4027 24.2035 55.0871 23.6642 54.7395L23.565 54.6739L23.5401 54.6568L23.5354 54.6536L23.5346 54.6529L23.533 54.6521L23.1662 54.4V54.8456C23.1662 55.8564 23.583 57.113 23.9842 58.0956C24.2092 58.6413 24.4563 59.1777 24.7248 59.7034L24.7264 59.7057L24.6304 59.7744L24.8349 59.911L24.9012 60.0335L24.9707 60.0008L24.9894 60.0132L25.2056 60.1498C26.3229 60.8395 27.4929 61.44 28.7046 61.9457C29.7801 62.3898 30.9922 62.7871 32.1988 62.9713C33.4039 63.1555 34.6199 63.1282 35.6923 62.7075C36.6226 62.343 37.9073 61.6015 39.4238 60.6532C40.4665 60.0015 41.6271 59.2452 42.8681 58.4374C43.4373 58.0659 44.0216 57.6864 44.621 57.2987C48.4337 54.8331 52.7889 52.1178 56.8201 50.3727L81.3485 43.911L81.464 43.8806L81.5069 43.769L84.7436 35.3834L84.9083 34.9565L84.4657 35.0735L66.0532 39.9243V32.8741L87.8273 27.1375L87.9428 27.1071L87.9857 26.9955L91.2224 18.6099L91.3871 18.183L90.9446 18.3001L66.0595 24.857V17.8076L94.2999 10.3664L94.4154 10.336L94.4583 10.2244L97.4733 2.41637L97.5007 2.34456L97.4804 2.27042L97.3492 1.78651L97.2884 1.56251L97.0636 1.62183L67.832 9.32368C69.1822 7.19295 69.649 5.27764 69.7676 3.85637C69.8316 3.08993 69.7933 2.46866 69.7387 2.03627C69.7114 1.82266 69.6732 1.61061 69.624 1.40095L69.6146 1.36505L69.6115 1.3549L69.6107 1.35178L69.3867 1.41734ZM69.3867 1.41734L69.2603 1.21988L69.5225 1.05286L69.6107 1.35178L69.3867 1.41734ZM69.1619 1.48368C69.1619 1.48264 69.1619 1.48264 69.1619 1.48368ZM49.8698 26.2985L55.3465 24.8546L53.6045 29.3682L48.1278 30.8121L49.8698 26.2985ZM53.2704 31.4646L51.5284 35.9812L46.0517 37.4259L47.7945 32.9085L53.2704 31.4646ZM61.1354 29.7764L59.3933 34.2931L53.9167 35.7377L55.6595 31.2203L61.1354 29.7764Z" fill="white"/>
<path d="M33.5483 63.3124C33.0846 63.3098 32.6218 63.2727 32.1637 63.2015C31.0819 63.0369 29.8878 62.6864 28.6156 62.1612C27.3918 61.6501 26.2102 61.0436 25.0815 60.3473L24.9535 60.2669L24.8006 60.3395L24.6569 60.0726L24.2183 59.7807L24.4267 59.6324L24.3315 59.4404C24.1918 59.1539 23.9803 58.7036 23.7687 58.1846C23.2146 56.8281 22.9336 55.7042 22.9336 54.8464V53.9551L23.6969 54.4804L23.7937 54.5444C24.3253 54.8863 24.8762 55.1972 25.4437 55.4755C26.328 55.9071 27.608 56.4199 28.7342 56.441L28.7935 56.3965L28.8677 56.3403L29.101 56.1654L29.1362 53.9286H31.9701L32.0076 51.6722H34.8337C36.1403 50.5873 36.9785 49.8193 37.3258 49.39C37.6583 48.9787 37.816 48.2193 37.7598 47.3085C37.6973 46.3079 37.3844 45.1652 36.877 44.0921C36.3162 42.8989 35.5332 41.8235 34.5699 40.9233C33.5165 39.9385 32.2377 39.2269 30.8454 38.8511C29.791 38.567 28.5844 38.6037 27.1553 38.9619L26.5184 39.1227L26.5754 38.4679C26.8673 35.0954 27.1935 33.1754 27.7024 31.8415C28.1527 30.6599 28.7303 29.984 29.4616 29.1278L29.5311 29.0458L29.7293 28.8125L29.8082 28.7196L29.9206 28.6767L32.2573 27.7908L32.2815 27.783L32.3198 27.7705C32.5923 27.6707 32.8595 27.5571 33.1206 27.4302C33.8817 27.0563 34.6038 26.6077 35.2763 26.0909C36.2869 25.3173 37.1965 24.4201 37.9838 23.4201C38.9844 22.1549 39.8249 20.7009 40.4813 19.097V19.0915L40.5001 19.0509L41.0932 17.5586L27.8913 26.5631L24.4033 39.758L24.3471 39.9719L24.1457 40.064C23.8359 40.2068 23.5174 40.3613 23.1756 40.5354L23.661 43.9305L20.2128 42.6638L20.5976 45.9418L16.6452 44.4893L16.2893 44.7204C16.8345 45.5487 17.4131 46.3545 18.0236 47.136C18.3264 47.5254 18.573 47.8291 18.7268 48.0148L18.9274 48.256L18.9844 48.3231L18.9898 48.3301L19.0523 48.391V48.4035L19.7648 49.2324L18.5926 49.1091C16.5563 48.896 14.4575 48.2092 12.3518 47.0681C11.9518 47.2683 11.5359 47.4351 11.1085 47.5668L11.0874 47.5731L11.0796 47.5754L11.0562 47.5824C10.0064 47.8759 8.87704 47.758 7.69694 47.2312C6.77987 46.8214 5.8308 46.1635 4.87548 45.2745C3.94493 44.3972 3.1029 43.4304 2.36153 42.3883L2.29363 42.2915L2.28894 42.2946L2.16485 42.1042L2.12426 42.0503V42.0417L2.10943 42.0199L2.08367 41.8786L1.82533 40.4933L2.7268 41.3221C5.30787 37.8638 7.17714 35.609 8.29792 34.3188C8.52894 34.0529 8.75138 33.8011 8.96524 33.5633L1.63802 35.8962L1.12055 36.0601L0.966797 35.1118L1.30631 34.8566L1.45694 34.7434L2.07353 34.2798L2.81343 33.7241C3.70709 33.0529 5.09246 32.0132 6.61753 30.8706C9.27041 28.8835 12.7826 26.2618 14.4482 25.0536C15.16 24.5377 15.9202 23.4958 16.8427 22.0901C17.0448 21.7818 17.2548 21.4571 17.471 21.1231C18.2281 19.9516 19.0858 18.6248 20.0903 17.2776C21.6287 15.2156 23.1927 13.5485 24.8716 12.1803C26.9679 10.4658 29.3688 9.16196 31.9483 8.33715C36.8411 6.77617 40.3931 6.14164 43.8257 6.21344C45.1994 6.24232 46.4528 6.37422 47.7797 6.51471L48.0091 6.5389C49.5366 6.69969 50.9414 6.83549 52.6702 6.87373C54.2655 6.90886 56.1207 6.62632 58.1828 6.03315C59.8468 5.55471 61.6458 4.8749 63.5299 4.01403C64.8999 3.38486 66.2432 2.69927 67.5565 1.959C68.073 1.66763 68.5835 1.36578 69.0878 1.05364L69.144 1.01773L69.6591 0.689148L69.9018 1.51022L69.8901 1.51334C69.9127 1.62261 69.944 1.7912 69.9713 2.00817C70.0454 2.59588 70.0556 3.22495 70.0009 3.87666C69.8589 5.58671 69.2985 7.29051 68.333 8.95061L97.4538 1.27842L97.7473 2.35705L97.6926 2.49988L94.5918 10.5319L94.36 10.5928L66.2936 17.9879V24.5533L91.7703 17.8396L91.4409 18.6942L88.1184 27.303L87.8866 27.3639L66.2866 33.0552V39.6175L84.4056 34.8449L85.2915 34.6115L84.9621 35.4661L81.6396 44.0757L81.4078 44.1366L56.8973 50.5935C52.9559 52.302 48.7295 54.9198 44.749 57.4946C44.1777 57.8638 43.6173 58.229 43.0749 58.5826L42.9781 58.6458C41.7488 59.4458 40.5875 60.2021 39.5486 60.8515C37.7832 61.9559 36.6203 62.5951 35.7781 62.9253C35.1194 63.1828 34.3732 63.3124 33.5483 63.3124ZM25.1182 59.8166L25.3297 59.95C26.4366 60.6319 27.5949 61.2264 28.7943 61.728C30.0322 62.2392 31.1888 62.5795 32.2339 62.7387C33.5405 62.9377 34.6753 62.8534 35.6064 62.4882C36.4205 62.169 37.5592 61.5414 39.2997 60.4534C40.3354 59.8056 41.4944 59.0509 42.7221 58.2517L42.8189 58.1885C43.3768 57.8245 43.9354 57.4616 44.4946 57.0997C48.4977 54.5108 52.7506 51.8774 56.728 50.1549L56.7444 50.1479L56.7615 50.1432L81.2899 43.6815L84.5258 35.296L65.8199 40.224V32.6931L87.7687 26.9104L91.0054 18.5249L65.8253 25.1606V17.6265L94.2406 10.1393L97.2556 2.33129L97.1245 1.84817L67.3161 9.70144L67.6353 9.19803C68.7459 7.44583 69.3851 5.64212 69.535 3.83686C69.599 3.06495 69.5553 2.44759 69.5069 2.06593C69.489 1.92523 69.4664 1.78518 69.439 1.64603L69.2829 1.69207L69.1877 1.54378L69.1861 1.54144L69.1525 1.56251L69.126 1.71549L68.9902 1.6952L68.9801 1.66788L68.9621 1.67881C68.5945 1.90125 68.1988 2.13227 67.7851 2.36564C66.4607 3.11312 65.1056 3.80497 63.7235 4.43939C61.8183 5.31042 59.9974 5.99803 58.3108 6.48271C56.2035 7.08837 54.3014 7.37715 52.6585 7.34124C50.9118 7.303 49.4967 7.16564 47.9592 7.00408L47.7297 6.97988C46.413 6.84095 45.1689 6.70983 43.8148 6.68173C40.4368 6.61071 36.9301 7.239 32.0895 8.78359C29.5389 9.59686 27.2739 10.8269 25.1666 12.544C23.5182 13.8872 21.9799 15.527 20.4649 17.5578C19.469 18.8925 18.616 20.2123 17.8636 21.3775C17.6474 21.7116 17.4366 22.0378 17.2337 22.3469C16.2558 23.8369 15.494 24.8733 14.7221 25.433C13.0589 26.6388 9.54904 29.2597 6.89772 31.2452C5.62925 32.1955 4.36147 33.1466 3.09441 34.0987L2.35528 34.6544L1.7387 35.118L1.58885 35.2304L1.47802 35.3132L1.47333 35.3069L1.49675 35.4505L10.5168 32.5783L9.90182 33.2339C9.47625 33.6903 9.05914 34.1545 8.6507 34.6263C7.51197 35.9368 5.59821 38.2462 2.94611 41.8107L2.79158 42.0183L2.64875 41.888V41.9824L2.74397 42.1182C2.90943 42.3518 3.08868 42.5912 3.28172 42.8363C3.70319 43.3732 4.37753 44.1725 5.1947 44.9334C6.11255 45.7873 7.0187 46.4172 7.88816 46.8058C8.96758 47.2882 9.99314 47.3974 10.9375 47.1321L10.9672 47.1173H10.989C11.424 46.9797 11.8466 46.8061 12.2526 46.5982L12.3619 46.5436L12.4696 46.6029C14.5364 47.7377 16.5937 48.4238 18.5847 48.6408V48.5799L18.5684 48.5604C18.2563 48.1879 17.9513 47.8096 17.6536 47.4255C16.9863 46.5719 16.3571 45.6891 15.768 44.7797L15.6415 44.5838L15.8374 44.4573L16.4868 44.0351L16.5851 43.9711L20.0427 45.2417L19.6579 41.9629L23.085 43.2218L22.6636 40.2724L22.8119 40.1959C23.2162 39.9875 23.5885 39.8056 23.949 39.6386L27.4815 26.2751L42.0899 16.3106L40.9457 19.1883V19.1953L40.9262 19.2367C40.2511 20.896 39.3832 22.4023 38.3467 23.712C37.5358 24.7435 36.598 25.6686 35.5557 26.4655C34.8584 27.001 34.1096 27.4659 33.3204 27.8532C33.0426 27.9877 32.7585 28.1083 32.4688 28.2146L32.4212 28.231L32.4048 28.2365L30.0837 29.1169L29.8846 29.351L29.8144 29.433C29.0846 30.2868 28.5578 30.9034 28.1364 32.0093C27.6447 33.3003 27.3262 35.1836 27.0382 38.5092C28.5461 38.1307 29.8308 38.0948 30.9641 38.4C32.4293 38.7954 33.7754 39.5438 34.8845 40.5799C35.8917 41.5207 36.7105 42.6449 37.2969 43.8923C37.8292 45.0185 38.1578 46.2213 38.2234 47.2796C38.2882 48.3208 38.0977 49.1754 37.6864 49.6843C37.3086 50.1518 36.4509 50.937 35.064 52.0866L34.9992 52.1405H32.4673L32.4329 54.1799L32.3369 54.272L32.326 54.2774L32.3104 54.2892L32.237 54.3461L32.173 54.3961H29.5959L29.5646 56.4004L29.4741 56.4691C29.3648 56.5523 29.2561 56.634 29.1479 56.7141L29.0737 56.7703L28.952 56.8616L28.8895 56.9092H28.806C28.1239 56.9092 26.9531 56.7329 25.2376 55.8954C24.6524 55.6097 24.0848 55.2894 23.5377 54.9362L23.4355 54.8683L23.4011 54.8456C23.4011 55.6316 23.6782 56.7251 24.2019 58.0066C24.4182 58.5355 24.6567 59.055 24.9168 59.5637L24.9215 59.5684L24.9379 59.6051L25.0074 59.7432L25.0144 59.7479L25.0167 59.7526L25.0956 59.8017L25.1182 59.8166ZM45.6685 37.7686L47.6189 32.7126L53.6536 31.1219L51.704 36.1771L45.6685 37.7686ZM47.9693 33.1044L46.4349 37.0825L51.3535 35.7853L52.888 31.808L47.9693 33.1044ZM53.5326 36.0804L55.4831 31.0244L61.5178 29.433L59.5682 34.4882L53.5326 36.0804ZM55.8343 31.4162L54.2999 35.3943L59.2185 34.0971L60.7529 30.1198L55.8343 31.4162ZM47.7438 31.1555L49.6942 26.1026L55.7289 24.5112L53.7785 29.5633L47.7438 31.1555ZM50.0446 26.4944L48.5102 30.4687L53.4288 29.1715L54.9625 25.1972L50.0446 26.4944Z" fill="black"/>
</g>
<defs>
<clipPath id="clip0_270_237">
<rect width="96.7805" height="64" fill="white" transform="translate(0.966797)"/>
</clipPath>
</defs>
</svg>
