<svg width="44" height="64" viewBox="0 0 44 64" fill="none" xmlns="http://www.w3.org/2000/svg">
<g clip-path="url(#clip0_270_268)">
<path d="M11.4157 64C17.3037 64 22.0824 59.2214 22.0824 53.3334V42.6667H11.4157C5.52769 42.6667 0.749023 47.4454 0.749023 53.3334C0.749023 59.2214 5.52769 64 11.4157 64Z" fill="#0ACF83"/>
<path d="M0.749023 32C0.749023 26.112 5.52769 21.3333 11.4157 21.3333H22.0824V42.6666H11.4157C5.52769 42.6666 0.749023 37.888 0.749023 32Z" fill="#A259FF"/>
<path d="M0.749023 10.6667C0.749023 4.77867 5.52769 0 11.4157 0H22.0824V21.3333H11.4157C5.52769 21.3333 0.749023 16.5547 0.749023 10.6667Z" fill="#F24E1E"/>
<path d="M22.0823 0H32.7489C38.6369 0 43.4156 4.77867 43.4156 10.6667C43.4156 16.5547 38.6369 21.3333 32.7489 21.3333H22.0823V0Z" fill="#FF7262"/>
<path d="M43.4156 32C43.4156 37.888 38.6369 42.6666 32.7489 42.6666C26.8609 42.6666 22.0823 37.888 22.0823 32C22.0823 26.112 26.8609 21.3333 32.7489 21.3333C38.6369 21.3333 43.4156 26.112 43.4156 32Z" fill="#1ABCFE"/>
</g>
<defs>
<clipPath id="clip0_270_268">
<rect width="42.67" height="64" fill="white" transform="translate(0.747314)"/>
</clipPath>
</defs>
</svg>
