<svg width="51" height="48" viewBox="0 0 51 48" fill="none" xmlns="http://www.w3.org/2000/svg">
<path d="M25.5013 0.304749C22.2995 0.304749 19.1291 0.935381 16.1711 2.16064C13.213 3.3859 10.5253 5.18178 8.26132 7.44576C3.689 12.0181 1.1203 18.2195 1.1203 24.6857C1.1203 35.4621 8.11763 44.6049 17.7969 47.8476C19.0159 48.0427 19.406 47.2868 19.406 46.6286V42.5082C12.6525 43.971 11.214 39.2411 11.214 39.2411C10.0925 36.4129 8.50773 35.6571 8.50773 35.6571C6.28906 34.1455 8.6784 34.1943 8.6784 34.1943C11.1165 34.3649 12.4087 36.7055 12.4087 36.7055C14.5298 40.4114 18.1138 39.3143 19.5035 38.7291C19.723 37.1444 20.3569 36.0716 21.0395 35.4621C15.627 34.8526 9.94621 32.7558 9.94621 23.4667C9.94621 20.7604 10.8727 18.5905 12.4574 16.8594C12.2136 16.2499 11.3603 13.7143 12.7013 10.4228C12.7013 10.4228 14.7493 9.76456 19.406 12.9097C21.3321 12.3733 23.4289 12.1051 25.5013 12.1051C27.5736 12.1051 29.6704 12.3733 31.5965 12.9097C36.2533 9.76456 38.3013 10.4228 38.3013 10.4228C39.6422 13.7143 38.7889 16.2499 38.5451 16.8594C40.1298 18.5905 41.0563 20.7604 41.0563 23.4667C41.0563 32.7802 35.3512 34.8282 29.9142 35.4377C30.7919 36.1935 31.5965 37.6808 31.5965 39.9482V46.6286C31.5965 47.2868 31.9866 48.067 33.23 47.8476C42.9093 44.5806 49.8822 35.4621 49.8822 24.6857C49.8822 21.4839 49.2516 18.3135 48.0263 15.3555C46.8011 12.3975 45.0052 9.70975 42.7412 7.44576C40.4772 5.18178 37.7895 3.3859 34.8314 2.16064C31.8734 0.935381 28.703 0.304749 25.5013 0.304749Z" fill="white"/>
</svg>
