<svg width="67" height="64" viewBox="0 0 67 64" fill="none" xmlns="http://www.w3.org/2000/svg">
<g clip-path="url(#clip0_270_274)">
<path d="M33.3314 0.406372C29.0624 0.406372 24.8352 1.24721 20.8912 2.88089C16.9471 4.51457 13.3635 6.90909 10.3448 9.92773C4.24842 16.0241 0.823486 24.2927 0.823486 32.9143C0.823486 47.2828 10.1533 59.4733 23.0589 63.7968C24.6843 64.0569 25.2044 63.0492 25.2044 62.1715V56.6776C16.1997 58.6281 14.2818 52.3215 14.2818 52.3215C12.7864 48.5506 10.6734 47.5429 10.6734 47.5429C7.71517 45.5274 10.9009 45.5924 10.9009 45.5924C14.1517 45.82 15.8747 48.9407 15.8747 48.9407C18.7029 53.8819 23.4815 52.4191 25.3345 51.6389C25.627 49.5259 26.4723 48.0955 27.3825 47.2828C20.1657 46.4701 12.5914 43.6744 12.5914 31.2889C12.5914 27.6805 13.8267 24.7873 15.9397 22.4793C15.6146 21.6666 14.4768 18.2857 16.2648 13.8972C16.2648 13.8972 18.9954 13.0195 25.2044 17.213C27.7726 16.4978 30.5683 16.1402 33.3314 16.1402C36.0946 16.1402 38.8903 16.4978 41.4584 17.213C47.6674 13.0195 50.3981 13.8972 50.3981 13.8972C52.186 18.2857 51.0483 21.6666 50.7232 22.4793C52.8362 24.7873 54.0715 27.6805 54.0715 31.2889C54.0715 43.7069 46.4646 46.4376 39.2154 47.2503C40.3856 48.2581 41.4584 50.241 41.4584 53.2643V62.1715C41.4584 63.0492 41.9785 64.0894 43.6364 63.7968C56.5421 59.4408 65.8394 47.2828 65.8394 32.9143C65.8394 28.6453 64.9985 24.4181 63.3648 20.4741C61.7312 16.53 59.3367 12.9464 56.318 9.92773C53.2994 6.90909 49.7157 4.51457 45.7717 2.88089C41.8276 1.24721 37.6004 0.406372 33.3314 0.406372Z" fill="white"/>
</g>
<defs>
<clipPath id="clip0_270_274">
<rect width="65.8286" height="64" fill="white" transform="translate(0.417236)"/>
</clipPath>
</defs>
</svg>
