<svg width="20" height="22" viewBox="0 0 20 22" fill="none" xmlns="http://www.w3.org/2000/svg">
<path d="M1.59239 6.93065L1.59242 6.93069L1.6 6.925L9.1 1.3L9.10002 1.30002L9.10604 1.29543C9.36516 1.09801 9.6511 1 10 1C10.3489 1 10.6348 1.09801 10.894 1.29543L10.8939 1.29545L10.9 1.3L18.4 6.925L18.4 6.92505L18.4086 6.93141C18.5903 7.06466 18.7329 7.23237 18.841 7.44806C18.9485 7.66263 19.0005 7.88347 19 8.1229V8.125V19.375C19 19.7949 18.862 20.13 18.5579 20.4342C18.2538 20.7383 17.9195 20.8755 17.5012 20.875H17.5H13.75C13.6482 20.875 13.6106 20.8515 13.5683 20.8091C13.5242 20.7649 13.5004 20.725 13.5 20.6236V14.375C13.5 13.7684 13.2835 13.2127 12.8459 12.7767C12.4103 12.3426 11.8569 12.1264 11.2524 12.125H11.25H8.75C8.14344 12.125 7.58773 12.3415 7.15167 12.7791C6.7176 13.2147 6.50143 13.7681 6.5 14.3726V14.375V20.625C6.5 20.7268 6.47646 20.7656 6.43289 20.8092C6.38945 20.8526 6.35184 20.8752 6.25236 20.875H6.25H2.5C2.07957 20.875 1.74505 20.7371 1.44211 20.4342C1.13925 20.1313 1.00063 19.7961 1 19.3743V8.125C1 7.88486 1.0524 7.66327 1.16026 7.44806C1.26867 7.23173 1.41126 7.06384 1.59239 6.93065Z" stroke="#3D3D3D" stroke-width="2"/>
</svg>
