<svg width="9" height="20" viewBox="0 0 9 20" fill="none" xmlns="http://www.w3.org/2000/svg">
<path d="M6.87497 0C6.37769 0 5.90078 0.197544 5.54915 0.549175C5.19752 0.900805 4.99998 1.37772 4.99998 1.875C4.99998 2.37228 5.19752 2.84919 5.54915 3.20083C5.90078 3.55246 6.37769 3.75 6.87497 3.75C7.37226 3.75 7.84917 3.55246 8.2008 3.20083C8.55243 2.84919 8.74997 2.37228 8.74997 1.875C8.74997 1.37772 8.55243 0.900805 8.2008 0.549175C7.84917 0.197544 7.37226 0 6.87497 0ZM6.42498 5.9625C4.93748 6.0875 0.874975 9.325 0.874975 9.325C0.624975 9.5125 0.699975 9.5 0.899975 9.85C1.09998 10.1875 1.07498 10.2125 1.31248 10.05C1.56248 9.8875 1.97498 9.625 2.66248 9.2C5.31247 7.5 3.08748 11.425 1.94998 18.0375C1.49998 21.3125 4.44998 19.625 5.21248 19.125C5.96248 18.6375 7.97497 17.25 8.17497 17.1125C8.44997 16.925 8.24998 16.775 8.03748 16.4625C7.88748 16.25 7.73747 16.4 7.73747 16.4C6.92497 16.9375 5.43747 18.0625 5.23747 17.35C4.99997 16.6375 6.52498 11.75 7.36248 8.3875C7.49998 7.5875 7.87498 5.8375 6.42498 5.9625Z" fill="#3D3D3D"/>
</svg>
