<svg width="65" height="64" viewBox="0 0 65 64" fill="none" xmlns="http://www.w3.org/2000/svg">
<g clip-path="url(#clip0_270_213)">
<path d="M0.0351562 0H64.0352V64H0.0351562V0Z" fill="#F7DF1E"/>
<path d="M16.8632 53.483L21.7607 50.519C22.7057 52.1943 23.5652 53.6118 25.6269 53.6118C27.6032 53.6118 28.8494 52.8388 28.8494 49.8318V29.3823H34.8637V49.9168C34.8637 56.146 31.2122 58.9815 25.8847 58.9815C21.0734 58.9815 18.2807 56.4898 16.8629 53.4825M38.1304 52.8385L43.0274 50.0033C44.3167 52.1085 45.9922 53.655 48.9562 53.655C51.4484 53.655 53.0374 52.409 53.0374 50.6905C53.0374 48.6285 51.4049 47.898 48.6554 46.6955L47.1522 46.0505C42.8129 44.2038 39.9347 41.8838 39.9347 36.9863C39.9347 32.4753 43.3714 29.0383 48.7417 29.0383C52.5652 29.0383 55.3147 30.3703 57.2907 33.85L52.6077 36.8575C51.5764 35.0103 50.4599 34.28 48.7414 34.28C46.9799 34.28 45.8629 35.397 45.8629 36.8575C45.8629 38.6618 46.9799 39.3925 49.5574 40.5095L51.0609 41.1538C56.1734 43.345 59.0517 45.5788 59.0517 50.6048C59.0517 56.0183 54.7987 58.9823 49.0849 58.9823C43.5002 58.9823 39.8914 56.3188 38.1302 52.8388" fill="black"/>
</g>
<defs>
<clipPath id="clip0_270_213">
<rect width="64" height="64" fill="white" transform="translate(0.0351562)"/>
</clipPath>
</defs>
</svg>
