<svg width="23" height="48" viewBox="0 0 23 48" fill="none" xmlns="http://www.w3.org/2000/svg">
<g clip-path="url(#clip0_236_313)">
<path d="M15.619 5.34276C13.6072 2.95579 11.8747 0.531392 11.5208 0.0279607C11.5124 0.0191254 11.5023 0.0120912 11.4911 0.00728481C11.4799 0.0024784 11.4678 0 11.4556 0C11.4434 0 11.4313 0.0024784 11.4201 0.00728481C11.4089 0.0120912 11.3988 0.0191254 11.3904 0.0279607C11.0364 0.53148 9.30398 2.95579 7.29209 5.34276C-9.97628 27.3665 10.0119 42.2293 10.0119 42.2293L10.1795 42.3412C10.3285 44.6349 10.7011 47.9358 10.7011 47.9358H12.1914C12.1914 47.9358 12.5639 44.6536 12.7129 42.3413L12.8806 42.2107C12.8993 42.2294 32.8875 27.3665 15.619 5.34276ZM11.4462 41.8936C11.4462 41.8936 10.5521 41.1291 10.3099 40.7376V40.7001L11.3904 16.7183C11.3904 16.6437 11.5022 16.6437 11.5022 16.7183L12.5826 40.7001V40.7376C12.3404 41.1291 11.4462 41.8936 11.4462 41.8936Z" fill="#01EC64"/>
</g>
<defs>
<clipPath id="clip0_236_313">
<rect width="22.3837" height="48" fill="white" transform="translate(0.263229)"/>
</clipPath>
</defs>
</svg>
