<svg width="49" height="48" viewBox="0 0 49 48" fill="none" xmlns="http://www.w3.org/2000/svg">
<g clip-path="url(#clip0_236_309)">
<path d="M41.0806 31.586C41.2812 31.4672 41.449 31.3001 41.5686 31.1C41.6832 30.8965 41.7451 30.6676 41.7486 30.434L41.7726 22.718C41.7761 22.4845 41.838 22.2555 41.9526 22.052C42.0728 21.8517 42.2413 21.6846 42.4426 21.566L46.6226 19.16C46.8265 19.0468 47.0554 18.9863 47.2886 18.984C47.5222 18.9875 47.7511 19.0494 47.9546 19.164C48.1552 19.2829 48.323 19.4499 48.4426 19.65C48.5565 19.8537 48.6177 20.0827 48.6206 20.316V34.344C48.6198 34.5785 48.5575 34.8086 48.44 35.0115C48.3224 35.2143 48.1537 35.3828 47.9506 35.5L32.1646 44.568C31.9628 44.6827 31.7347 44.743 31.5026 44.743C31.2705 44.743 31.0424 44.6827 30.8406 44.568L18.4526 37.484C18.2487 37.3673 18.079 37.199 17.9606 36.996C17.8428 36.7924 17.7808 36.5613 17.7806 36.326V29.252C17.782 29.2427 17.7873 29.24 17.7966 29.244C17.81 29.248 17.8153 29.2447 17.8126 29.234V29.226C17.8126 29.2207 17.8153 29.216 17.8206 29.212L28.0246 23.352C28.0326 23.346 28.0286 23.332 28.0186 23.332L28.0106 23.328L28.0086 23.32L28.0286 16.386C28.0289 16.1513 27.9676 15.9206 27.8507 15.717C27.7338 15.5134 27.5655 15.3441 27.3626 15.226C27.1596 15.1095 26.9297 15.0482 26.6956 15.0482C26.4616 15.0482 26.2316 15.1095 26.0286 15.226L18.4466 19.598C18.2441 19.7138 18.0149 19.7747 17.7816 19.7747C17.5484 19.7747 17.3191 19.7138 17.1166 19.598L9.50862 15.218C9.306 15.1017 9.07639 15.0407 8.84277 15.041C8.60916 15.0414 8.37972 15.103 8.17742 15.2199C7.97512 15.3367 7.80705 15.5046 7.69003 15.7068C7.57301 15.909 7.51115 16.1384 7.51062 16.372V28.906C7.5101 29.1396 7.44855 29.3689 7.33208 29.5713C7.21561 29.7737 7.04826 29.9422 6.84662 30.06C6.6437 30.1743 6.41548 30.2362 6.18262 30.24C5.94943 30.2377 5.7205 30.1772 5.51662 30.064L1.29462 27.65C1.09067 27.5333 0.920995 27.365 0.80262 27.162C0.684505 26.9578 0.622413 26.726 0.62262 26.49L0.66062 4.58403C0.661345 4.3507 0.723256 4.12165 0.840172 3.91973C0.957088 3.71781 1.12492 3.55009 1.32692 3.4333C1.52891 3.31652 1.75801 3.25475 1.99133 3.25418C2.22466 3.2536 2.45405 3.31424 2.65662 3.43003L17.1166 11.736C17.3191 11.8518 17.5484 11.9127 17.7816 11.9127C18.0149 11.9127 18.2441 11.8518 18.4466 11.736L32.9026 3.43003C33.1065 3.31681 33.3354 3.25631 33.5686 3.25403C33.8022 3.25753 34.0311 3.31941 34.2346 3.43403C34.4355 3.55342 34.6032 3.72119 34.7226 3.92203C34.8358 4.1259 34.8963 4.35483 34.8986 4.58803V26.5C34.8986 26.734 34.8386 26.964 34.7206 27.168C34.6028 27.3708 34.4338 27.539 34.2306 27.656L26.6606 32.016C26.4571 32.1336 26.2882 32.3026 26.1706 32.506C26.0539 32.7093 25.9925 32.9396 25.9926 33.174C25.9931 33.4086 26.0552 33.639 26.1726 33.842C26.2915 34.0453 26.4619 34.2136 26.6666 34.33L30.8426 36.708C31.0449 36.8196 31.2716 36.8794 31.5026 36.882C31.7353 36.8788 31.9635 36.8176 32.1666 36.704L41.0806 31.586ZM41.9566 11.93C41.9568 12.1653 42.0188 12.3964 42.1366 12.6C42.2561 12.8035 42.4272 12.9719 42.6326 13.088C42.8377 13.2032 43.0695 13.2624 43.3048 13.2596C43.54 13.2568 43.7703 13.1921 43.9726 13.072L47.9746 10.672C48.1701 10.5514 48.3329 10.3845 48.4486 10.186C48.5599 9.98435 48.6196 9.75834 48.6226 9.52803V4.64003C48.6219 4.40458 48.5591 4.17349 48.4406 3.97003C48.3211 3.76707 48.1502 3.5992 47.9452 3.48333C47.7401 3.36746 47.5081 3.30769 47.2726 3.31003C47.0373 3.31295 46.8069 3.37779 46.6046 3.49803L42.6046 5.89803C42.4084 6.01843 42.2449 6.18536 42.1286 6.38403C42.0181 6.58589 41.959 6.81189 41.9566 7.04203V11.93Z" fill="#007BF8"/>
</g>
<defs>
<clipPath id="clip0_236_309">
<rect width="48" height="48" fill="white" transform="translate(0.62262)"/>
</clipPath>
</defs>
</svg>
