<svg width="44" height="48" viewBox="0 0 44 48" fill="none" xmlns="http://www.w3.org/2000/svg">
<g clip-path="url(#clip0_236_311)">
<path d="M21.8832 47.911C21.223 47.911 20.6068 47.7349 20.0347 47.4268L14.1805 43.9496C13.3002 43.4654 13.7403 43.2893 14.0044 43.2013C15.1928 42.8052 15.4129 42.7172 16.6453 42.0128C16.7775 41.9247 16.9535 41.9688 17.0854 42.0568L21.5751 44.7418C21.7512 44.8298 21.9713 44.8298 22.1033 44.7418L39.6657 34.5743C39.8417 34.4862 39.9297 34.3102 39.9297 34.0901V13.7987C39.9297 13.5787 39.8417 13.4026 39.6657 13.3146L22.1033 3.1909C21.9272 3.10287 21.7072 3.10287 21.5751 3.1909L4.01278 13.3147C3.83673 13.4028 3.7487 13.6228 3.7487 13.7989V34.0901C3.7487 34.2662 3.83673 34.4862 4.01278 34.5743L8.81063 37.3471C11.4076 38.6675 13.036 37.1271 13.036 35.5866V15.5593C13.036 15.2952 13.2562 15.0311 13.5643 15.0311H15.8092C16.0732 15.0311 16.3373 15.2512 16.3373 15.5593V35.5864C16.3373 39.0637 14.4446 41.0883 11.1434 41.0883C10.131 41.0883 9.33879 41.0883 7.09409 39.988L2.4723 37.3471C1.32794 36.6868 0.623718 35.4544 0.623718 34.134V13.8429C0.623718 12.5225 1.32794 11.2901 2.4723 10.6297L20.0347 0.462206C21.135 -0.153987 22.6315 -0.153987 23.7318 0.462206L41.2942 10.6297C42.4385 11.2899 43.1427 12.5223 43.1427 13.8429V34.1341C43.1427 35.4545 42.4385 36.6869 41.2942 37.3471L23.7318 47.515C23.1596 47.7791 22.4994 47.9111 21.8832 47.9111M27.2971 33.9581C19.5943 33.9581 18.0098 30.437 18.0098 27.4439C18.0098 27.1798 18.2299 26.9157 18.538 26.9157H20.8267C21.0908 26.9157 21.3111 27.0917 21.3111 27.3558C21.6632 29.6886 22.6755 30.8331 27.3411 30.8331C31.0384 30.8331 32.6231 29.9968 32.6231 28.0162C32.6231 26.8717 32.183 26.0354 26.4168 25.4631C21.6192 24.9789 18.626 23.9226 18.626 20.0934C18.626 16.5279 21.619 14.4153 26.6369 14.4153C32.2708 14.4153 35.0439 16.3519 35.396 20.5774C35.396 20.7095 35.352 20.8415 35.2639 20.9735C35.1759 21.0615 35.0439 21.1495 34.9118 21.1495H32.6231C32.4029 21.1495 32.183 20.9735 32.1388 20.7534C31.6106 18.3327 30.2462 17.5404 26.6369 17.5404C22.5876 17.5404 22.1033 18.9489 22.1033 20.0052C22.1033 21.2818 22.6755 21.6777 28.1334 22.3819C33.5474 23.0862 36.1002 24.0986 36.1002 27.884C36.0562 31.7574 32.8872 33.9581 27.2971 33.9581Z" fill="#539E43"/>
</g>
<defs>
<clipPath id="clip0_236_311">
<rect width="42.5212" height="48" fill="white" transform="translate(0.62262)"/>
</clipPath>
</defs>
</svg>
