<svg width="41" height="48" viewBox="0 0 41 48" fill="none" xmlns="http://www.w3.org/2000/svg">
<g clip-path="url(#clip0_236_315)">
<path fill-rule="evenodd" clip-rule="evenodd" d="M36.1671 37.9497L14.9774 44.267C14.8298 44.3118 14.6731 44.3175 14.5226 44.2836C14.3721 44.2497 14.2329 44.1773 14.1188 44.0736C14.0046 43.9699 13.9193 43.8383 13.8711 43.6917C13.823 43.5452 13.8137 43.3886 13.8441 43.2374L21.4154 6.68771C21.4474 6.53841 21.5254 6.40289 21.6384 6.3002C21.7514 6.19751 21.8937 6.13281 22.0454 6.11519C22.1971 6.09756 22.3505 6.1279 22.484 6.20195C22.6176 6.27599 22.7246 6.39001 22.79 6.52799L36.806 36.5361C36.8688 36.6695 36.9019 36.815 36.9031 36.9624C36.9043 37.1099 36.8734 37.2559 36.8127 37.3903C36.7519 37.5247 36.6628 37.6443 36.5513 37.7409C36.4398 37.8375 36.3088 37.9087 36.1671 37.9497ZM39.8015 36.4579L23.5766 1.7127C23.3774 1.28403 23.065 0.917816 22.6731 0.653458C22.2812 0.389099 21.8246 0.236604 21.3525 0.212379C20.8803 0.179328 20.4082 0.277538 19.9884 0.496146C19.5686 0.714754 19.2174 1.04524 18.9737 1.45103L1.37941 30.1984C1.11062 30.6334 0.970812 31.1357 0.976226 31.647C0.98164 32.1584 1.13206 32.6576 1.40999 33.0869L10.0143 46.5252C10.3389 47.027 10.8171 47.4103 11.3775 47.6179C11.938 47.8255 12.5505 47.8463 13.1237 47.6772L38.1007 40.2299C38.4779 40.1201 38.8269 39.9297 39.1235 39.672C39.4201 39.4143 39.6573 39.0954 39.8188 38.7372C39.9803 38.379 40.0622 37.9901 40.0589 37.5972C40.0556 37.2043 39.9672 36.8167 39.7998 36.4613L39.8015 36.4579Z" fill="white"/>
</g>
<defs>
<clipPath id="clip0_236_315">
<rect width="39.5044" height="48" fill="white" transform="translate(0.646973)"/>
</clipPath>
</defs>
</svg>
