<svg width="72" height="64" viewBox="0 0 72 64" fill="none" xmlns="http://www.w3.org/2000/svg">
<g clip-path="url(#clip0_270_216)">
<path d="M59.1185 20.7225C58.3537 20.4602 57.5825 20.2171 56.8055 19.9935C56.936 19.4602 57.0562 18.9333 57.1628 18.4157C58.9138 9.91574 57.7691 3.06802 53.8592 0.813425C50.1105 -1.34798 43.9797 0.905776 37.7879 6.29441C37.1777 6.82641 36.581 7.37377 35.9985 7.93595C35.6085 7.56214 35.2116 7.19557 34.808 6.83644C28.3188 1.07476 21.8143 -1.35359 17.9086 0.90746C14.1632 3.0756 13.0542 9.51293 14.6306 17.5685C14.7874 18.3663 14.9645 19.16 15.1617 19.9489C14.241 20.2105 13.3526 20.4889 12.5023 20.7854C4.89419 23.438 0.0355225 27.5949 0.0355225 31.9068C0.0355225 36.3601 5.25152 40.8269 13.1757 43.5354C13.8182 43.754 14.466 43.9567 15.1185 44.1431C14.9066 44.9927 14.7185 45.8481 14.5543 46.7082C13.0514 54.624 14.225 60.9091 17.9603 63.0635C21.8183 65.2884 28.2935 63.0018 34.5983 57.4902C35.1095 57.0421 35.6095 56.5813 36.0978 56.1083C36.7287 56.717 37.3765 57.308 38.0403 57.8807C44.1478 63.136 50.1795 65.2581 53.9112 63.0978C57.7655 60.8665 59.0183 54.1145 57.3919 45.8997C57.2638 45.2562 57.1201 44.6158 56.961 43.9792C57.4157 43.8444 57.8621 43.7058 58.2971 43.5615C66.5352 40.8322 71.8952 36.4196 71.8952 31.9068C71.8952 27.5792 66.8796 23.3942 59.1185 20.7225ZM57.3318 40.6478C56.9384 40.7777 56.5361 40.9035 56.1248 41.0254C55.2153 38.1462 53.9881 35.0849 52.486 31.9216C53.9193 28.8339 55.0994 25.8116 55.9833 22.9512C56.7185 23.164 57.4317 23.3883 58.1195 23.6249C64.7693 25.9143 68.8254 29.2988 68.8254 31.9068C68.8254 34.6846 64.4448 38.2908 57.3318 40.6478ZM54.3805 46.496C55.0997 50.1282 55.2021 53.4124 54.7258 55.98C54.298 58.2871 53.4373 59.8251 52.3729 60.4412C50.1085 61.7521 45.2656 60.0482 40.0425 55.5536C39.4251 55.0212 38.8226 54.4718 38.2357 53.9059C40.2606 51.6915 42.2842 49.1171 44.2592 46.2579C47.7332 45.9497 51.0152 45.4456 53.9915 44.7576C54.1384 45.3493 54.268 45.9287 54.3805 46.496ZM24.534 60.2147C22.3216 60.9959 20.5593 61.0183 19.494 60.4042C17.2274 59.0969 16.2851 54.0502 17.5704 47.2808C17.7232 46.4809 17.8981 45.6853 18.095 44.8951C21.0385 45.5463 24.2966 46.0145 27.7787 46.2969C29.7672 49.0947 31.8491 51.6662 33.9474 53.918C33.5014 54.3494 33.045 54.7699 32.5784 55.1789C29.7902 57.616 26.9964 59.3451 24.534 60.2147ZM14.1689 40.6307C10.6649 39.4329 7.7711 37.8764 5.78766 36.1779C4.00521 34.6517 3.10556 33.1362 3.10556 31.9068C3.10556 29.2901 7.00647 25.9525 13.5129 23.6842C14.3025 23.4091 15.1289 23.1494 15.9864 22.9058C16.8858 25.8307 18.0653 28.8889 19.4887 31.9814C18.0468 35.1197 16.8504 38.2268 15.9423 41.1862C15.3467 41.0156 14.7554 40.8303 14.1689 40.6307ZM17.6434 16.9788C16.2929 10.0771 17.1898 4.87097 19.4469 3.5643C21.8508 2.17258 27.1667 4.15686 32.7698 9.13202C33.1352 9.45717 33.4947 9.78892 33.848 10.1271C31.7602 12.3691 29.6973 14.9215 27.7265 17.7027C24.3468 18.016 21.1117 18.519 18.1374 19.1929C17.9541 18.4592 17.7894 17.7208 17.6434 16.9788ZM48.6404 24.6332C47.9379 23.4197 47.2093 22.2215 46.4552 21.0394C48.7479 21.3294 50.9447 21.7142 53.0076 22.1847C52.3884 24.1698 51.6164 26.245 50.7078 28.3727C50.0437 27.1126 49.3544 25.8658 48.6404 24.6332ZM35.9999 12.3214C37.4157 13.8554 38.8338 15.568 40.2286 17.4262C37.3992 17.2926 34.565 17.292 31.7355 17.4245C33.1317 15.5834 34.5618 13.8731 35.9999 12.3214ZM23.2782 24.654C22.5731 25.8767 21.8968 27.1157 21.2496 28.3699C20.3558 26.2498 19.5909 24.165 18.9663 22.1518C21.0166 21.6931 23.203 21.3181 25.4811 21.0335C24.7186 22.2228 23.9841 23.4302 23.2782 24.654ZM25.5465 42.9981C23.1929 42.7354 20.9736 42.3797 18.9239 41.9334C19.5583 39.8843 20.3401 37.7552 21.2532 35.5896C21.903 36.8448 22.5822 38.0845 23.2903 39.3077C24.0184 40.5653 24.7724 41.797 25.5465 42.9981ZM36.0846 51.7083C34.6295 50.1386 33.1783 48.4019 31.761 46.5341C33.137 46.588 34.5397 46.6155 35.9653 46.6155C37.43 46.6155 38.8779 46.5827 40.303 46.5193C38.9037 48.4207 37.491 50.16 36.0846 51.7083ZM50.7367 35.479C51.6973 37.6684 52.5068 39.7863 53.1496 41.8004C51.0663 42.2759 48.8167 42.6588 46.4465 42.9431C47.206 41.7391 47.9415 40.52 48.6525 39.2867C49.3754 38.0331 50.0704 36.7635 50.7367 35.479ZM45.9934 37.7529C44.9048 39.6438 43.7551 41.4988 42.5461 43.315C40.356 43.4703 38.161 43.5473 35.9653 43.5461C33.729 43.5461 31.5538 43.4764 29.4592 43.3406C28.2186 41.5286 27.0469 39.6704 25.9468 37.7698C24.8518 35.8793 23.8293 33.9479 22.881 31.9797C23.8269 30.0111 24.8466 28.0788 25.9378 26.1869L25.9376 26.1872C27.0283 24.2947 28.1906 22.4444 29.4219 20.6402C31.5589 20.4785 33.7503 20.3943 35.9651 20.3943C38.1899 20.3943 40.3844 20.4794 42.5209 20.6422C43.7398 22.4437 44.8946 24.2876 45.9833 26.1706C47.0781 28.0584 48.1112 29.9813 49.0811 31.9362C48.1212 33.9111 47.0913 35.8512 45.9934 37.7529ZM52.3261 3.47251C54.7322 4.8603 55.6681 10.4567 54.1562 17.7956C54.0593 18.2642 53.9517 18.7404 53.8334 19.2244C50.8518 18.5361 47.6145 18.0244 44.225 17.7063C42.2505 14.8945 40.2045 12.3382 38.1506 10.1251C38.6889 9.60629 39.24 9.10087 39.8034 8.60935C45.1086 3.99265 50.067 2.16978 52.3261 3.47251ZM35.9653 25.4899C39.5092 25.4899 42.3822 28.3629 42.3822 31.9068C42.3822 35.4506 39.5092 38.3236 35.9653 38.3236C32.4215 38.3236 29.5485 35.4506 29.5485 31.9068C29.5485 28.3629 32.4215 25.4899 35.9653 25.4899Z" fill="#00D8FF"/>
</g>
<defs>
<clipPath id="clip0_270_216">
<rect width="71.86" height="64" fill="white" transform="translate(0.0351562)"/>
</clipPath>
</defs>
</svg>
