<svg width="65" height="48" viewBox="0 0 65 48" fill="none" xmlns="http://www.w3.org/2000/svg">
<g clip-path="url(#clip0_236_300)">
<path d="M55.927 27.6285C53.7005 27.64 51.7652 28.1763 50.145 28.969C49.5502 27.7915 48.9557 26.7425 48.851 25.973C48.7342 25.0755 48.5945 24.5275 48.7342 23.455C48.8742 22.3825 49.5037 20.8553 49.492 20.7388C49.4802 20.6223 49.352 20.0743 48.0697 20.0628C46.7875 20.0513 45.68 20.3075 45.5517 20.6455C45.4235 20.9835 45.1787 21.753 45.0155 22.5455C44.794 23.7115 42.451 27.873 41.1105 30.053C40.679 29.2023 40.306 28.456 40.2242 27.8615C40.1077 26.964 39.9677 26.416 40.1077 25.3435C40.2477 24.271 40.8772 22.744 40.8655 22.6273C40.8537 22.5108 40.7255 21.9628 39.4432 21.9513C38.1607 21.9395 37.0532 22.196 36.9252 22.534C36.797 22.8723 36.657 23.6648 36.389 24.4343C36.121 25.2038 33.0082 32.1518 32.1922 33.9468C31.8625 34.6733 31.5165 35.3924 31.1547 36.1035C31.1547 36.1035 31.143 36.1385 31.108 36.1968C30.9943 36.4197 30.8778 36.6412 30.7585 36.8613V36.8727C30.5835 37.1877 30.397 37.479 30.3037 37.479C30.2337 37.479 30.1055 36.6398 30.327 35.4972C30.7932 33.0843 31.9007 29.3305 31.8892 29.2023C31.8892 29.1323 32.099 28.4795 31.1665 28.1413C30.257 27.8033 29.9307 28.3628 29.849 28.3628C29.7672 28.3628 29.709 28.561 29.709 28.561C29.709 28.561 30.7235 24.341 27.774 24.341C25.9322 24.341 23.3907 26.3578 22.1317 28.1763C20.7005 28.9551 19.2705 29.7362 17.8417 30.5195C17.1542 30.9043 16.443 31.289 15.7785 31.6503C15.7317 31.6038 15.6852 31.5453 15.6385 31.4988C12.0712 27.6868 5.47324 24.9938 5.75299 19.8763C5.85799 18.011 6.49899 13.1148 18.4247 7.1695C28.2402 2.3315 36.051 3.672 37.4032 6.64475C39.3382 10.8883 33.2182 18.7688 23.076 19.911C19.2057 20.3425 17.1772 18.8503 16.6645 18.2908C16.1282 17.7078 16.0465 17.6728 15.8482 17.7895C15.522 17.9645 15.7317 18.489 15.8482 18.792C16.1515 19.5845 17.3987 20.9835 19.5087 21.6715C21.374 22.2775 25.9087 22.6158 31.3995 20.494C37.543 18.1158 42.346 11.506 40.9355 5.96875C39.5247 0.349751 30.1987 -1.50375 21.374 1.632C16.1282 3.4975 10.4392 6.435 6.34749 10.2588C1.48624 14.805 0.716742 18.757 1.03149 20.4125C2.16249 26.2878 10.2645 30.1115 13.5052 32.9442C13.342 33.0375 13.1902 33.1193 13.0622 33.1893C11.4417 33.9935 5.26324 37.2225 3.72449 40.6382C1.97599 44.5085 4.00449 47.2832 5.34499 47.656C9.50674 48.8102 13.785 46.7353 16.0815 43.3078C18.378 39.8805 18.0982 35.4272 17.0375 33.3872C17.0257 33.364 17.0142 33.3405 16.9907 33.3172C17.4105 33.0725 17.8417 32.816 18.2615 32.5713C19.033 32.1152 19.8142 31.6759 20.6047 31.2538C20.2082 32.338 19.9167 33.632 19.777 35.4972C19.602 37.689 20.4995 40.5332 21.677 41.6522C22.2017 42.1423 22.8195 42.1538 23.216 42.1538C24.5915 42.1538 25.2095 41.0112 25.8972 39.659C26.7365 38.0037 27.4942 36.0802 27.4942 36.0802C27.4942 36.0802 26.55 41.2795 29.1147 41.2795C30.0472 41.2795 30.9915 40.067 31.4112 39.4492V39.4608C31.4112 39.4608 31.4345 39.4258 31.4812 39.3442C31.5745 39.1927 31.6327 39.0993 31.6327 39.0993V39.0762C32.0057 38.4232 32.8452 36.9428 34.0925 34.483C35.7012 31.3123 37.2517 27.3488 37.2517 27.3488C37.2517 27.3488 37.3917 28.3163 37.8695 29.925C38.1495 30.8693 38.732 31.9067 39.1985 32.9092C38.8255 33.434 38.5922 33.7253 38.5922 33.7253L38.604 33.737C38.3007 34.1333 37.9745 34.5645 37.613 34.9845C36.3422 36.4998 34.827 38.237 34.617 38.738C34.372 39.3325 34.4305 39.764 34.897 40.1138C35.235 40.3703 35.841 40.405 36.459 40.3703C37.6015 40.2885 38.4058 40.0088 38.802 39.834C39.42 39.6125 40.1427 39.2743 40.8187 38.773C42.0662 37.852 42.8237 36.5348 42.754 34.798C42.719 33.842 42.4042 32.886 42.0195 31.9883C42.1362 31.8253 42.241 31.662 42.3577 31.4988C44.3277 28.6193 45.855 25.46 45.855 25.46C45.855 25.46 45.995 26.4275 46.4727 28.0365C46.706 28.8525 47.184 29.7385 47.6035 30.601C45.75 32.105 44.6075 33.8535 44.1995 34.996C43.4652 37.1177 44.0362 38.0735 45.1205 38.295C45.61 38.4 46.3095 38.1668 46.8225 37.9453C47.4753 37.7355 48.2448 37.3742 48.9793 36.8377C50.2267 35.917 51.4272 34.6345 51.3573 32.8978C51.3223 32.105 51.1125 31.3238 50.821 30.566C52.3947 29.9135 54.4233 29.552 57.011 29.855C62.5603 30.5078 63.656 33.97 63.446 35.4275C63.2362 36.8845 62.0705 37.6772 61.686 37.922C61.301 38.167 61.173 38.2485 61.208 38.4232C61.2545 38.6797 61.441 38.6682 61.7675 38.6215C62.2223 38.54 64.682 37.444 64.7868 34.7627C64.9618 31.3355 61.6975 27.5935 55.927 27.6285ZM13.1205 42.0605C11.2785 44.0655 8.71399 44.8232 7.60649 44.1823C6.41749 43.4943 6.88374 40.5332 9.14524 38.4118C10.5207 37.1178 12.2927 35.9167 13.4702 35.1825C13.7382 35.0192 14.1347 34.7863 14.6127 34.4948C14.6942 34.448 14.741 34.4248 14.741 34.4248L15.0207 34.2497C15.8482 37.2807 15.0557 39.9505 13.1205 42.0605ZM26.5267 32.9442C25.8855 34.5065 24.545 38.505 23.729 38.2835C23.0295 38.097 22.598 35.066 23.589 32.07C24.0902 30.566 25.151 28.7708 25.769 28.0715C26.7715 26.9523 27.879 26.579 28.147 27.034C28.4852 27.6285 26.923 31.965 26.5267 32.9442ZM37.5897 38.2368C37.3215 38.3768 37.0652 38.47 36.9485 38.4C36.867 38.3533 37.0652 38.1668 37.0652 38.1668C37.0652 38.1668 38.4525 36.6748 39.0002 35.9985C39.3153 35.6022 39.688 35.136 40.0845 34.6113V34.7627C40.0845 36.5465 38.359 37.7473 37.5895 38.2368M46.1227 36.29C45.9245 36.15 45.9595 35.6838 46.624 34.2265C46.8805 33.6553 47.4865 32.6995 48.5242 31.7785C48.6407 32.1515 48.7225 32.513 48.7107 32.851C48.699 35.101 47.0905 35.9403 46.1227 36.29Z" fill="#CD6799"/>
</g>
<defs>
<clipPath id="clip0_236_300">
<rect width="64.0013" height="48" fill="white" transform="translate(0.856125)"/>
</clipPath>
</defs>
</svg>
