<svg width="65" height="64" viewBox="0 0 65 64" fill="none" xmlns="http://www.w3.org/2000/svg">
<path d="M12.0823 23.5H61.9173V60.335H12.0823V23.5Z" fill="white"/>
<path d="M1.49731 31.955V63.205H63.9973V0.705017H1.49731V31.955ZM51.8623 29.455C53.3593 29.8024 54.7198 30.5853 55.7723 31.705C56.3517 32.3083 56.8554 32.9799 57.2723 33.705C57.2723 33.785 54.5723 35.61 52.9273 36.63C52.8673 36.67 52.6273 36.41 52.3623 36.015C52.062 35.4968 51.6353 35.0632 51.1221 34.7546C50.6089 34.4459 50.0258 34.2723 49.4273 34.25C47.5323 34.12 46.3123 35.115 46.3223 36.75C46.3071 37.157 46.4003 37.5608 46.5923 37.92C47.0073 38.785 47.7823 39.3 50.2123 40.35C54.6873 42.275 56.6023 43.545 57.7923 45.35C59.1223 47.35 59.4173 50.58 58.5173 52.97C57.5173 55.57 55.0673 57.335 51.6023 57.92C50.0197 58.1014 48.4207 58.0846 46.8423 57.87C44.4231 57.4712 42.1947 56.3097 40.4823 54.555C39.9073 53.92 38.7873 52.265 38.8573 52.145C39.0395 52.009 39.2317 51.887 39.4323 51.78L41.7473 50.5L43.5423 49.46L43.9173 50.015C44.5504 50.9201 45.3558 51.6915 46.2873 52.285C48.2873 53.335 51.0173 53.19 52.3673 51.975C52.8206 51.5298 53.1033 50.9397 53.1664 50.3075C53.2294 49.6753 53.0687 49.041 52.7123 48.515C52.2123 47.82 51.2123 47.235 48.4173 46.015C45.1923 44.625 43.8023 43.765 42.5323 42.395C41.7397 41.4908 41.1544 40.4242 40.8173 39.27C40.5661 37.9512 40.5289 36.6006 40.7073 35.27C41.3723 32.155 43.7073 29.98 47.1173 29.335C48.6965 29.1399 50.2961 29.1837 51.8623 29.465V29.455ZM37.1923 32.075V34.635H29.0773V57.75H23.3223V34.63H15.1873V32.13C15.1618 31.2679 15.1818 30.405 15.2473 29.545C15.2873 29.5 20.2473 29.5 26.2473 29.5H37.1623L37.1923 32.075Z" fill="#007ACC"/>
</svg>
