<svg width="49" height="48" viewBox="0 0 49 48" fill="none" xmlns="http://www.w3.org/2000/svg">
<g clip-path="url(#clip0_236_324)">
<path d="M9.23798 17.625H46.6142V45.2512H9.23798V17.625Z" fill="white"/>
<path d="M1.29926 23.9662V47.4037H48.1743V0.528748H1.29926V23.9662ZM39.073 22.0912C40.1957 22.3518 41.2161 22.939 42.0055 23.7787C42.44 24.2312 42.8178 24.7349 43.1305 25.2787C43.1305 25.3387 41.1055 26.7075 39.8718 27.4725C39.8268 27.5025 39.6468 27.3075 39.448 27.0112C39.2228 26.6226 38.9028 26.2974 38.5178 26.0659C38.1329 25.8344 37.6956 25.7042 37.2468 25.6875C35.8255 25.59 34.9105 26.3362 34.918 27.5625C34.9066 27.8678 34.9765 28.1706 35.1205 28.44C35.4318 29.0887 36.013 29.475 37.8355 30.2625C41.1918 31.7062 42.628 32.6587 43.5205 34.0125C44.518 35.5125 44.7393 37.935 44.0643 39.7275C43.3143 41.6775 41.4768 43.0012 38.878 43.44C37.6911 43.576 36.4918 43.5634 35.308 43.4025C33.4936 43.1034 31.8223 42.2323 30.538 40.9162C30.1068 40.44 29.2668 39.1987 29.3193 39.1087C29.4559 39.0067 29.6 38.9152 29.7505 38.835L31.4868 37.875L32.833 37.095L33.1143 37.5112C33.5891 38.1901 34.1931 38.7686 34.8918 39.2137C36.3918 40.0012 38.4393 39.8925 39.4518 38.9812C39.7917 38.6473 40.0038 38.2048 40.0511 37.7306C40.0983 37.2564 39.9778 36.7807 39.7105 36.3862C39.3355 35.865 38.5855 35.4262 36.4893 34.5112C34.0705 33.4687 33.028 32.8237 32.0755 31.7962C31.4811 31.1181 31.0421 30.3181 30.7893 29.4525C30.6008 28.4634 30.573 27.4504 30.7068 26.4525C31.2055 24.1162 32.9568 22.485 35.5143 22.0012C36.6987 21.8549 37.8984 21.8878 39.073 22.0987V22.0912ZM28.0705 24.0562V25.9762H21.9843V43.3125H17.668V25.9725H11.5668V24.0975C11.5476 23.4509 11.5626 22.8038 11.6118 22.1587C11.6418 22.125 15.3618 22.125 19.8618 22.125H28.048L28.0705 24.0562Z" fill="#007ACC"/>
</g>
<defs>
<clipPath id="clip0_236_324">
<rect width="48" height="48" fill="white" transform="translate(0.736755)"/>
</clipPath>
</defs>
</svg>
