<svg width="66" height="64" viewBox="0 0 66 64" fill="none" xmlns="http://www.w3.org/2000/svg">
<path d="M64.6085 9.63642L34.7199 63.0832C34.1023 64.1868 32.5169 64.193 31.8909 63.0957L1.40925 9.64266C0.72606 8.44488 1.7485 6.99577 3.10603 7.23772L33.0268 12.5851C33.2178 12.6199 33.4134 12.6199 33.6044 12.5851L62.8987 7.24605C64.2505 6.99993 65.2792 8.43707 64.6085 9.63642Z" fill="url(#paint0_linear_270_226)"/>
<path d="M47.2786 0.223724L25.1617 4.55699C24.9851 4.59149 24.8251 4.68364 24.7066 4.81897C24.5881 4.95431 24.5179 5.12516 24.5071 5.3047L23.1454 28.2864C23.1381 28.4125 23.1602 28.5385 23.21 28.6545C23.2598 28.7705 23.336 28.8733 23.4324 28.9547C23.5288 29.0362 23.6429 29.0941 23.7656 29.1239C23.8883 29.1537 24.0162 29.1545 24.1392 29.1262L30.2978 27.7031C30.4304 27.6727 30.5686 27.676 30.6996 27.7128C30.8306 27.7496 30.9503 27.8187 31.0477 27.9138C31.145 28.0089 31.217 28.1269 31.2569 28.257C31.2968 28.3871 31.3033 28.5251 31.276 28.6585L29.446 37.6179C29.4181 37.7558 29.4264 37.8986 29.4701 38.0324C29.5139 38.1661 29.5917 38.2861 29.6958 38.3808C29.7999 38.4755 29.9268 38.5415 30.064 38.5724C30.2013 38.6033 30.3442 38.598 30.4789 38.5571L34.2814 37.4004C34.8709 37.2214 35.4381 37.7397 35.3143 38.3433L32.4056 52.4165C32.2246 53.2969 33.3953 53.7766 33.8834 53.0222L34.2086 52.5185L52.2326 16.5484C52.5355 15.9448 52.0136 15.258 51.3533 15.386L45.0131 16.6098C44.8767 16.6363 44.7357 16.6273 44.6038 16.5836C44.4719 16.54 44.3534 16.4631 44.2597 16.3604C44.166 16.2578 44.1003 16.1327 44.0689 15.9974C44.0374 15.862 44.0413 15.7208 44.0802 15.5874L48.2168 1.24616C48.2557 1.11225 48.2594 0.970585 48.2276 0.834812C48.1958 0.699039 48.1296 0.573741 48.0353 0.470996C47.9411 0.368252 47.8219 0.291526 47.6894 0.248216C47.5568 0.204905 47.4154 0.19647 47.2786 0.223724Z" fill="url(#paint1_linear_270_226)"/>
<defs>
<linearGradient id="paint0_linear_270_226" x1="0.664245" y1="5.32792" x2="37.8643" y2="55.8485" gradientUnits="userSpaceOnUse">
<stop stop-color="#41D1FF"/>
<stop offset="1" stop-color="#BD34FE"/>
</linearGradient>
<linearGradient id="paint1_linear_270_226" x1="31.3099" y1="1.39965" x2="38.0392" y2="47.562" gradientUnits="userSpaceOnUse">
<stop stop-color="#FFEA83"/>
<stop offset="0.083" stop-color="#FFDD35"/>
<stop offset="1" stop-color="#FFA800"/>
</linearGradient>
</defs>
</svg>
