<svg width="49" height="48" viewBox="0 0 49 48" fill="none" xmlns="http://www.w3.org/2000/svg">
<g clip-path="url(#clip0_236_306)">
<path d="M48.141 7.22733L25.7246 47.3124C25.2614 48.1401 24.0724 48.1448 23.6029 47.3218L0.741627 7.23201C0.229237 6.33367 0.996066 5.24684 2.01421 5.42831L24.4548 9.43884C24.598 9.4649 24.7448 9.4649 24.888 9.43884L46.8587 5.43455C47.8726 5.24996 48.6441 6.32782 48.141 7.22733Z" fill="url(#paint0_linear_236_306)"/>
<path d="M35.1436 0.167808L18.5559 3.41776C18.4235 3.44363 18.3034 3.51274 18.2146 3.61424C18.1257 3.71574 18.0731 3.84388 18.065 3.97854L17.0437 21.2148C17.0382 21.3094 17.0548 21.4039 17.0922 21.4909C17.1295 21.5779 17.1866 21.655 17.2589 21.7161C17.3312 21.7772 17.4168 21.8206 17.5088 21.8429C17.6008 21.8653 17.6968 21.8659 17.7891 21.8447L22.408 20.7774C22.5075 20.7545 22.6111 20.757 22.7093 20.7846C22.8076 20.8122 22.8974 20.864 22.9704 20.9353C23.0434 21.0067 23.0974 21.0952 23.1273 21.1928C23.1572 21.2903 23.1621 21.3939 23.1416 21.4939L21.7692 28.2135C21.7482 28.3169 21.7544 28.424 21.7872 28.5243C21.8201 28.6246 21.8784 28.7146 21.9565 28.7856C22.0345 28.8566 22.1297 28.9061 22.2327 28.9293C22.3356 28.9525 22.4428 28.9485 22.5438 28.9179L25.3957 28.0503C25.8378 27.9161 26.2632 28.3048 26.1703 28.7575L23.9889 39.3124C23.8531 39.9727 24.7311 40.3325 25.0972 39.7666L25.3411 39.3889L38.8591 12.4113C39.0862 11.9586 38.6948 11.4435 38.1996 11.5395L33.4445 12.4574C33.3421 12.4772 33.2364 12.4705 33.1375 12.4377C33.0385 12.405 32.9496 12.3473 32.8794 12.2703C32.8091 12.1933 32.7598 12.0996 32.7363 11.998C32.7127 11.8965 32.7156 11.7906 32.7448 11.6905L35.8472 0.934637C35.8764 0.834206 35.8792 0.727954 35.8553 0.626124C35.8315 0.524294 35.7818 0.430321 35.7111 0.353262C35.6404 0.276204 35.5511 0.21866 35.4517 0.186177C35.3523 0.153694 35.2462 0.147368 35.1436 0.167808Z" fill="url(#paint1_linear_236_306)"/>
</g>
<defs>
<linearGradient id="paint0_linear_236_306" x1="0.182876" y1="3.99595" x2="28.0829" y2="41.8864" gradientUnits="userSpaceOnUse">
<stop stop-color="#41D1FF"/>
<stop offset="1" stop-color="#BD34FE"/>
</linearGradient>
<linearGradient id="paint1_linear_236_306" x1="23.167" y1="1.04975" x2="28.214" y2="35.6715" gradientUnits="userSpaceOnUse">
<stop stop-color="#FFEA83"/>
<stop offset="0.083" stop-color="#FFDD35"/>
<stop offset="1" stop-color="#FFA800"/>
</linearGradient>
<clipPath id="clip0_236_306">
<rect width="48.3902" height="48" fill="white" transform="translate(0.232361)"/>
</clipPath>
</defs>
</svg>
